<?xml version="1.0" standalone="no"?><!DOCTYPE svg PUBLIC "-//W3C//DTD SVG 1.1//EN" "http://www.w3.org/Graphics/SVG/1.1/DTD/svg11.dtd"><svg t="1555152535813" class="icon" style="" viewBox="0 0 1024 1024" version="1.1" xmlns="http://www.w3.org/2000/svg" p-id="2426" xmlns:xlink="http://www.w3.org/1999/xlink" width="20" height="20"><defs><style type="text/css"></style></defs><path d="M967.84 750.694l-370.978-633.249c-51.188-87.428-134.588-87.428-185.778 0l-370.978 633.249c-51.188 87.428-10.353 158.172 90.874 158.172h745.983c101.807 0 142.64-70.741 90.874-158.172zM505.986 793.254c-28.762 0-51.766-23.006-51.766-51.766s23.006-51.766 51.766-51.766 51.766 23.006 51.766 51.766-23.006 51.766-51.766 51.766zM557.176 344.049l-11.502 240.993v0.58c0 22.428-17.829 40.261-40.261 40.261s-40.261-17.829-40.261-40.261l-11.502-246.743v-0.58c0-28.762 23.006-51.766 51.766-51.766s51.766 23.006 51.766 51.766c0.58 2.299 0.58 4.027 0 5.754z" p-id="2427" fill="#EF5959"></path></svg>