<?xml version="1.0" encoding="utf-8"?>
<!-- Generator: Adobe Illustrator 16.0.0, SVG Export Plug-In . SVG Version: 6.00 Build 0)  -->
<!DOCTYPE svg PUBLIC "-//W3C//DTD SVG 1.1//EN" "http://www.w3.org/Graphics/SVG/1.1/DTD/svg11.dtd">
<svg version="1.1" id="图层_1" xmlns="http://www.w3.org/2000/svg" xmlns:xlink="http://www.w3.org/1999/xlink" x="0px" y="0px"
	 width="200px" height="200px" viewBox="0 0 200 200" enable-background="new 0 0 200 200" xml:space="preserve">
<path fill="#e72427" d="M22.477,92.48c0,0,29.185,6.211,37.263,8.379c8,2.168,17.917-13.535,20.578-14.102
	c1.702,4.922,7.198,19.375,10.484,29.18c-5.085-0.156-31.473,7.832-32.431,12.48c-1.096,4.707-13.419,55.684-13.419,55.684
	s-5.223,10.957,9.604,14.961c14.846,4.004,15.512-8.184,15.512-8.184s10.367-39.102,11.286-41.465
	c0.861-2.363,20.187-6.328,24.607-5.137c4.46,1.211,14.006,34.59,23.434,36.855c12.108,2.93,47.572-18.574,47.572-18.574
	s14.005-3.457,11.149-16.582c-2.915-13.027-16.51-9.473-16.51-9.473s-25.115,13.789-28.011,12.168
	c-2.934-1.641-4.597-11.152-8.88-20.371c-0.177-3.477-10.035-31.113-10.035-31.113s-5.457-18.398-3.286-19.551
	c2.993-1.582,6.123,1.797,7.766,4.609c1.644,2.793,8.157,14.297,19.052,29.277c9.683,13.34,26.955,0.957,19.776-11.504
	c-5.966-10.371-21.85-40.02-33.272-45.605c-11.502-5.625-31.337-8.75-48.217-4.805C69.54,53.477,57.646,72.656,54.321,75.195
	c-3.247,2.441-26.094-4.941-26.094-4.941s-13.008-4.512-16.235,7.344C8.745,89.531,22.477,92.48,22.477,92.48L22.477,92.48z
	 M75.916,43.613c11.971,3.242,24.158-3.691,27.365-15.527c3.188-11.777-3.794-23.965-15.766-27.207
	C75.564-2.344,63.339,4.648,60.15,16.426C56.923,28.262,63.984,40.371,75.916,43.613L75.916,43.613z"/>
</svg>
