<svg id="组_106" data-name="组 106" xmlns="http://www.w3.org/2000/svg" viewBox="0 0 16 14">
  <defs>
    <style>
      .cls-1 {
        fill: #fff;
      }
    </style>
  </defs>
  <g id="组_105" data-name="组 105">
    <path id="路径_225" data-name="路径 225" class="cls-1" d="M4.643,6.161a.6.6,0,0,1-.17-.152L4.463,6l0,0a.54.54,0,0,1-.106-.321A.6.6,0,0,1,4.975,5.1a.63.63,0,0,1,.5.234l.007,0L8.444,7.953,14.84.645a.619.619,0,0,1,.545-.306A.6.6,0,0,1,16,.911a.549.549,0,0,1-.067.259l.012.007L9.116,9.056l-.019,0a.623.623,0,0,1-.552.317.631.631,0,0,1-.473-.208l-.031,0ZM5.839,0A.59.59,0,0,1,6.4.571a.59.59,0,0,1-.557.569v0H1.229V12.857H13.522V9.464h.019a.617.617,0,0,1,1.229.018.536.536,0,0,1-.019.138v3.237A1.188,1.188,0,0,1,13.522,14H1.229A1.188,1.188,0,0,1,0,12.857V1.143A1.188,1.188,0,0,1,1.229,0h4.61Zm0,0"/>
  </g>
</svg>
