<svg xmlns="http://www.w3.org/2000/svg" viewBox="0 0 18 18">
  <defs>
    <style>
      .cls-1 {
        fill: #fff;
      }
    </style>
  </defs>
  <path id="路径_237" data-name="路径 237" class="cls-1" d="M0,0V18H18V0ZM16.276,16.147v.39H14.144l.337,0H10.406l-.6,0H1.722v-.39S1.547,13.963,4.749,13.4c0,0,2.437-.331,2.609-1,0,0,.093-.074.025-.857a5.5,5.5,0,0,0-1.67-3.086,2.964,2.964,0,0,1-.475-1.371.437.437,0,0,1,.2-.368c.157-.146.111-.3.081-.464A7.6,7.6,0,0,1,5.509,4a2.187,2.187,0,0,1,.706-1.346,1.719,1.719,0,0,0,.347-.373.514.514,0,0,0,.061-.128c.052-.173-.123-.3-.089-.482.032-.166.312-.173.482-.183a8.947,8.947,0,0,1,1.151,0c2.863.22,3.8,1.28,3.8,1.28a2.408,2.408,0,0,1,.457.931A2.179,2.179,0,0,1,12.491,4a7.168,7.168,0,0,1,.061,1.574c-.012.247-.042.492-.079.739a.416.416,0,0,0,.076.351.793.793,0,0,1,.189.259.527.527,0,0,1,.02.166,2.964,2.964,0,0,1-.475,1.371,5.5,5.5,0,0,0-1.67,3.086c-.069.783.025.857.025.857.17.674,2.609,1,2.609,1,3.239.6,3.027,2.742,3.027,2.742Zm0,0"/>
</svg>
