<?xml version="1.0" standalone="no"?><!DOCTYPE svg PUBLIC "-//W3C//DTD SVG 1.1//EN" "http://www.w3.org/Graphics/SVG/1.1/DTD/svg11.dtd"><svg t="1544534679031" class="icon" style="" viewBox="0 0 1024 1024" version="1.1" xmlns="http://www.w3.org/2000/svg" p-id="2124" xmlns:xlink="http://www.w3.org/1999/xlink" width="200" height="200"><defs><style type="text/css"></style></defs><path d="M426.666667 42.666667q77.994667 0 149.162667 30.506667t122.496 81.834667 81.834667 122.496 30.506667 149.162667q0 66.986667-21.845333 128.341333t-62.165333 111.317333l242.346667 242.005333q12.330667 12.330667 12.330667 30.336 0 18.346667-12.16 30.506667t-30.506667 12.16q-18.005333 0-30.336-12.330667l-242.005333-242.346667q-50.005333 40.32-111.317333 62.165333t-128.341333 21.845333q-77.994667 0-149.162667-30.506667t-122.496-81.834667-81.834667-122.496-30.506667-149.162667 30.506667-149.162667 81.834667-122.496 122.496-81.834667 149.162667-30.506667zM426.666667 128q-60.672 0-116.010667 23.68t-95.317333 63.658667-63.658667 95.317333-23.68 116.010667 23.68 116.010667 63.658667 95.317333 95.317333 63.658667 116.010667 23.68 116.010667-23.68 95.317333-63.658667 63.658667-95.317333 23.68-116.010667-23.68-116.010667-63.658667-95.317333-95.317333-63.658667-116.010667-23.68z" p-id="2125" fill="#ffffff"></path></svg>