<svg xmlns="http://www.w3.org/2000/svg" viewBox="0 0 52 42.4">
  <defs>
    <style>
      .cls-1 {
        fill: none;
        stroke: #ffffff;
        stroke-linejoin: round;
        stroke-width: 4px;
      }
    </style>
  </defs>
  <path id="路径_2881" data-name="路径 2881" class="cls-1" d="M32.768,11.216V3.84a4.386,4.386,0,0,0-.9-2.718A2.783,2.783,0,0,0,29.714,0H3.048C1.366,0,0,1.722,0,3.84V34.56c0,2.118,1.366,3.84,3.048,3.84H29.714c1.681,0,3.048-1.713,3.048-3.84V27.184L44.088,34.6a2.331,2.331,0,0,0,3.182-.549A3.271,3.271,0,0,0,48,31.977V6.423c0-3.047-1.755-4-3.738-2.734C42.233,4.971,32.768,11.216,32.768,11.216Z" transform="translate(2 2)"/>
</svg>
