<?xml version="1.0" encoding="utf-8"?>
<!-- Generator: Adobe Illustrator 22.0.1, SVG Export Plug-In . SVG Version: 6.00 Build 0)  -->
<svg version="1.1" id="图层_1" xmlns="http://www.w3.org/2000/svg" xmlns:xlink="http://www.w3.org/1999/xlink" x="0px" y="0px"
	 viewBox="0 0 36 36" style="enable-background:new 0 0 36 36;" xml:space="preserve">
<style type="text/css">
	.st0{fill:#E72427;}
	.st1{fill:#FFFFFF;}
</style>
<title>资源 1</title>
<g id="图层_2_1_">
	<g id="图层_1-2">
		<g id="组_139">
			<path id="路径_244" class="st0" d="M0,18c0,9.9,8.1,18,18,18s18-8.1,18-18S27.9,0,18,0l0,0C8.1,0,0,8.1,0,18z"/>
		</g>
		<circle class="st1" cx="18.2" cy="7.3" r="3.3"/>
		<path class="st1" d="M22.9,21.6c-0.3,0-0.5-0.1-0.7-0.2c-2.8-1.6-4.7-4.2-5.5-7.3c-0.2-0.8,0.3-1.6,1.1-1.8
			c0.8-0.2,1.6,0.3,1.8,1.1c0,0,0,0.1,0,0.1c0.6,2.2,2,4.1,4,5.3c0.7,0.4,1,1.3,0.6,2C23.9,21.3,23.4,21.6,22.9,21.6L22.9,21.6z"/>
		<path class="st1" d="M13.1,22.3H13c-0.8-0.1-1.4-0.9-1.3-1.7c0.8-6.7,5.4-8.2,5.6-8.2c0.8-0.3,1.6,0.2,1.9,1c0,0,0,0,0,0
			c0.2,0.8-0.2,1.6-1,1.9c0,0,0,0,0,0c-0.1,0.1-3,1.1-3.5,5.8C14.5,21.7,13.9,22.3,13.1,22.3z"/>
		<path class="st1" d="M13,32.2c-0.8,0-1.5-0.7-1.5-1.5c0-0.5,0.2-1,0.6-1.2c4-2.8,4.3-7.9,4.3-7.9c0-0.8,0.8-1.5,1.6-1.4
			c0,0,0,0,0,0c0.8,0,1.5,0.7,1.4,1.6c0,0,0,0,0,0c0,0.3-0.4,6.6-5.5,10.3C13.6,32.1,13.3,32.2,13,32.2z"/>
		<path class="st1" d="M20.2,33c-0.3,0-0.5-0.1-0.7-0.2c-0.7-0.4-1-1.3-0.6-2c1.1-1.9,1.4-3.6,0.9-5c-0.5-1.2-1.3-2.2-2.5-2.8
			c-0.8-0.3-1.1-1.2-0.8-2c0.3-0.8,1.2-1.1,2-0.8c1.9,0.9,3.4,2.6,4.1,4.6c0.8,2.2,0.4,4.8-1.1,7.5C21.3,32.7,20.7,33,20.2,33z"/>
		<path class="st1" d="M17.9,23.6c-0.7,0-1.4-0.4-1.8-1.1c-0.2-0.4-1.8-3.6-0.3-8.9c0.2-1.1,1.3-1.7,2.4-1.5
			c1.1,0.2,1.7,1.3,1.5,2.4c0,0.1,0,0.1,0,0.2c-1,3.8,0,6,0,6c0.5,1,0.2,2.2-0.8,2.7c0,0,0,0,0,0C18.6,23.5,18.3,23.6,17.9,23.6z"/>
	</g>
</g>
</svg>
