<?xml version="1.0" encoding="utf-8"?>
<!-- Generator: Adobe Illustrator 22.0.1, SVG Export Plug-In . SVG Version: 6.00 Build 0)  -->
<svg version="1.1" id="图层_1" xmlns="http://www.w3.org/2000/svg" xmlns:xlink="http://www.w3.org/1999/xlink" x="0px" y="0px"
	 viewBox="0 0 36 36" style="enable-background:new 0 0 36 36;" xml:space="preserve">
<style type="text/css">
	.st0{fill:#E72427;}
	.st1{fill:#FFFFFF;}
</style>
<title>资源 5</title>
<g id="图层_2_1_">
	<g id="图层_1-2">
		<g id="组_139">
			<path id="路径_244" class="st0" d="M18,0L18,0C8.1,0,0,8.1,0,18s8.1,18,18,18s18-8.1,18-18S27.9,0,18,0z"/>
		</g>
		<circle class="st1" cx="17.5" cy="7.3" r="3.3"/>
		<path class="st1" d="M23.9,21.5h0.1c0.8-0.1,1.4-0.8,1.3-1.6c-0.6-6.1-6.6-7.6-6.9-7.6c-0.8-0.2-1.6,0.2-1.9,1
			c-0.2,0.8,0.2,1.6,1,1.9c0.1,0,0.1,0,0.2,0c0.2,0,4.2,1,4.6,5C22.5,20.9,23.1,21.5,23.9,21.5z"/>
		<path class="st1" d="M11.9,18.9c2.9-0.1,5.6-1.5,7.4-3.9c0.5-0.7,0.3-1.6-0.4-2.1c-0.7-0.5-1.6-0.3-2.1,0.4l0,0
			c-1.7,2.3-4.8,3.2-7.4,2c-0.7-0.4-1.6-0.1-2,0.7S7.3,17.6,8,18c0,0,0.1,0,0.1,0.1C9.3,18.6,10.6,18.9,11.9,18.9z"/>
		<path class="st1" d="M9.5,31.1c0.7,0,1.3-0.5,1.4-1.1c1.9-6.5,6.7-7,6.8-7.1c0.8-0.1,1.4-0.8,1.3-1.7s-0.8-1.4-1.7-1.3
			c-0.3,0-6.9,0.8-9.4,9.2c-0.2,0.8,0.2,1.6,1,1.9C9.2,31.1,9.3,31.1,9.5,31.1z"/>
		<path class="st1" d="M25.9,31.1c0.8,0,1.5-0.7,1.5-1.5c0-0.7-0.4-1.3-1.1-1.5c-6.5-1.9-7.2-6.7-7.3-6.9c-0.1-0.8-0.9-1.4-1.7-1.3
			s-1.4,0.9-1.3,1.7c0,0.3,1,6.9,9.4,9.4C25.5,31.1,25.7,31.1,25.9,31.1z"/>
		<path class="st1" d="M17.2,23.4c0.8,0,1.5-0.5,1.8-1.2c0.9-2.6,1.3-5.4,0.9-8.1c-0.1-1.1-1.1-1.9-2.2-1.8s-1.9,1.1-1.8,2.2
			c0.2,2.1,0,4.3-0.6,6.3c-0.4,1,0.1,2.2,1.1,2.6C16.7,23.3,17,23.4,17.2,23.4z"/>
	</g>
</g>
</svg>
