<?xml version="1.0" standalone="no"?><!DOCTYPE svg PUBLIC "-//W3C//DTD SVG 1.1//EN" "http://www.w3.org/Graphics/SVG/1.1/DTD/svg11.dtd"><svg t="1555220498281" class="icon" style="" viewBox="0 0 1024 1024" version="1.1" xmlns="http://www.w3.org/2000/svg" p-id="17044" xmlns:xlink="http://www.w3.org/1999/xlink" width="200" height="200"><defs><style type="text/css"></style></defs><path d="M693.6864013671875 676.3821620941163c-13.5955810546875-2.471923828125-25.9552001953125 6.180582046508789-28.4271240234375 19.775390625-2.472696304321289 13.5955810546875 6.1798095703125 25.955972671508786 19.775390625 28.42789649963379 70.4490566253662 13.5955810546875 112.47176170349118 35.8428955078125 112.47176170349118 46.966552734375 0 2.471923828125-3.7078857421875 6.1798095703125-13.5955810546875 13.594808578491211-13.5955810546875 8.6517333984375-33.3709716796875 17.304239273071286-59.326171875 24.720010757446286-55.6182861328125 16.0675048828125-131.011962890625 24.720010757446286-211.3494873046875 24.720010757446286-80.3382968902588 0-156.9671630859375-8.6517333984375-211.3494873046875-24.720010757446286-25.9552001953125-7.415771484375-45.72981834411621-16.0675048828125-59.326171875-24.720010757446286-11.1236572265625-7.414999008178711-14.83154296875-11.12288475036621-14.83154296875-13.594808578491211 0-9.8876953125 38.3148193359375-30.8990478515625 102.58483886718751-44.49462890625 13.5955810546875-2.471923828125 22.247314453125-16.0675048828125 18.5394287109375-29.6630859375-1.2359619140625-13.5955810546875-14.83154296875-22.247314453125-28.4271240234375-18.5394287109375-87.75406837463379 18.5394287109375-142.1356201171875 48.2025146484375-142.1356201171875 92.6971435546875 0 69.21463966369629 148.3154296875 111.236572265625 333.709716796875 111.236572265625s333.709716796875-42.02193260192871 333.709716796875-111.236572265625c0-45.7305908203125-58.0902099609375-76.629638671875-152.0233154296875-95.16983985900879zM324.8884983062744 485.96214485168457l167.12677001953128 267.0457935333252c3.594331741333007 7.332344055175782 11.21403694152832 12.363481521606445 19.983959197998047 12.363481521606445 8.76837730407715 0 16.317787170410156-5.031137466430664 19.983186721801758-12.363481521606445l167.12754249572754-267.0457935333252h-0.43104171752929693c22.93018341064453-35.07891654968261 36.300201416015625-76.84206962585449 36.300201416015625-121.84189796447757C734.9791164398193 241.05706405639654 635.1334781646727 141.21142578125 511.9984550476074 141.21142578125c-123.13579559326172 0-222.9806613922119 99.84563827514647-222.9806613922119 222.90882110595703 0 44.99828338623047 13.29740524291992 86.76298141479492 36.22913360595703 121.84189796447757h-0.3599739074707032zM512 262.47860145568853c56.14048004150391 0 101.64241790771486 45.50116539001465 101.64241790771486 101.64241790771486S568.1404800415039 465.7626647949219 512 465.7626647949219c-56.1412525177002 0-101.64319038391113-45.501937866210945-101.64319038391113-101.64241790771486S455.85874748229975 262.47860145568853 512 262.47860145568853z" p-id="17045"></path></svg>