<?xml version="1.0" encoding="utf-8"?>
<!-- Generator: Adobe Illustrator 22.0.1, SVG Export Plug-In . SVG Version: 6.00 Build 0)  -->
<svg version="1.1" id="图层_1" xmlns="http://www.w3.org/2000/svg" xmlns:xlink="http://www.w3.org/1999/xlink" x="0px" y="0px"
	 viewBox="0 0 36 36" style="enable-background:new 0 0 36 36;" xml:space="preserve">
<style type="text/css">
	.st0{fill:#E72427;}
	.st1{fill:#FFFFFF;}
</style>
<title>资源 4</title>
<g id="图层_2_1_">
	<g id="图层_1-2">
		<g id="组_139">
			<path id="路径_244" class="st0" d="M18,0L18,0C8.1,0,0,8.1,0,18s8.1,18,18,18s18-8.1,18-18S27.9,0,18,0z"/>
		</g>
		<circle class="st1" cx="17.8" cy="7.3" r="3.3"/>
		<path class="st1" d="M13.1,21.6c0.3,0,0.5-0.1,0.7-0.2c2.8-1.6,4.7-4.2,5.5-7.3c0.2-0.8-0.3-1.6-1.1-1.8c-0.8-0.2-1.6,0.3-1.8,1.1
			c0,0,0,0.1,0,0.1c-0.6,2.2-2,4.1-4,5.3c-0.7,0.4-1,1.3-0.6,2C12.1,21.3,12.6,21.6,13.1,21.6L13.1,21.6z"/>
		<path class="st1" d="M22.9,22.3H23c0.8-0.1,1.4-0.9,1.3-1.7c-0.8-6.7-5.4-8.2-5.6-8.2c-0.8-0.3-1.6,0.2-1.9,1c0,0,0,0,0,0
			c-0.2,0.8,0.2,1.6,1,1.9c0,0,0,0,0,0c0.1,0.1,3,1.1,3.5,5.8C21.5,21.7,22.1,22.3,22.9,22.3z"/>
		<path class="st1" d="M23,32.2c0.8,0,1.5-0.7,1.5-1.5c0-0.5-0.2-1-0.6-1.2c-4-2.8-4.3-7.9-4.3-7.9c0-0.8-0.8-1.5-1.6-1.4
			c0,0,0,0,0,0c-0.8,0-1.5,0.7-1.4,1.6c0,0,0,0,0,0c0,0.3,0.4,6.6,5.5,10.3C22.4,32.1,22.7,32.2,23,32.2z"/>
		<path class="st1" d="M15.8,33c0.3,0,0.5-0.1,0.7-0.2c0.7-0.4,1-1.3,0.6-2c-1.1-1.9-1.4-3.6-0.9-5c0.5-1.2,1.3-2.2,2.5-2.8
			c0.8-0.3,1.1-1.2,0.8-2c-0.3-0.8-1.2-1.1-2-0.8c-1.9,0.9-3.4,2.6-4.1,4.6c-0.8,2.2-0.4,4.7,1.1,7.4C14.7,32.7,15.2,33,15.8,33z"/>
		<path class="st1" d="M18.1,23.6c0.7,0,1.4-0.4,1.8-1.1c0.2-0.4,1.8-3.6,0.3-8.9c-0.3-1-1.5-1.6-2.5-1.3c-1,0.3-1.6,1.3-1.3,2.3
			c1,3.8,0,6,0,6c-0.5,1-0.2,2.2,0.8,2.7c0,0,0,0,0,0C17.4,23.5,17.7,23.6,18.1,23.6z"/>
	</g>
</g>
</svg>
