<svg xmlns="http://www.w3.org/2000/svg" viewBox="0 0 102 36">
  <defs>
    <style>
      .cls-1 {
        fill: #212e39;
      }

      .cls-2, .cls-3 {
        fill: #a6abb0;
      }

      .cls-2 {
        font-size: 20px;
        font-family: PingFangSC-Medium, PingFang SC;
        font-weight: 500;
      }
    </style>
  </defs>
  <g id="组_1870" data-name="组 1870" transform="translate(-887 -1015)">
    <rect id="矩形_1133" data-name="矩形 1133" class="cls-1" width="102" height="36" rx="18" transform="translate(887 1015)"/>
    <text id="出口" class="cls-2" transform="translate(937 1040)"><tspan x="0" y="0">出口</tspan></text>
    <g id="组_1872" data-name="组 1872" transform="translate(905 1021)">
      <path id="路径_3737" data-name="路径 3737" class="cls-3" d="M83.875,33A1.868,1.868,0,0,0,82,34.875a1.96,1.96,0,0,0,1.875,1.875,1.868,1.868,0,0,0,1.875-1.875A1.966,1.966,0,0,0,83.875,33Z" transform="translate(-69.623 -27.987)"/>
      <g id="组_1871" data-name="组 1871">
        <path id="路径_3738" data-name="路径 3738" class="cls-3" d="M.151,0H24V24H17.66V22.025h1.992l-.03-19.443h-16V16.709H3.472a1.632,1.632,0,0,0-.755-.152,2.382,2.382,0,0,0-1.66.911,1.88,1.88,0,0,0-.3,1.519,2.152,2.152,0,0,0,1.208,1.367l1.811.759V24H0V0Z"/>
        <path id="路径_3739" data-name="路径 3739" class="cls-3" d="M27.77,63.739l-3.789-1.094h-.3l-1.208,3.19,3.472,3.342a.806.806,0,0,1,.151,1.215L23.83,72.671a1.574,1.574,0,0,1-1.811.152.791.791,0,0,1-.151-1.367l1.509-1.519-2.717-2.43L17.34,71c-.151.152-.3.3-.453.3a1.644,1.644,0,0,1-1.208,0L11.6,69.633c-.6-.3-.755-.911-.453-1.215a.991.991,0,0,1,1.358-.456l3.472,1.367a24.9,24.9,0,0,0,2.264-2.278l1.509-5.924-3.774.3v2.127s0,.608-1.057.608c0,0-.906,0-.755-.759V60.063a.692.692,0,0,1,.755-.608L21.415,59h.755a2.884,2.884,0,0,1,2.264,1.823v.152l3.819,1.063a.881.881,0,0,1,.619,1.078h0A.865.865,0,0,1,27.77,63.739Z" transform="translate(-9.34 -50.038)"/>
      </g>
    </g>
  </g>
</svg>
