<?xml version="1.0" encoding="UTF-8"?>
<svg width="24px" height="24px" viewBox="0 0 24 24" version="1.1" xmlns="http://www.w3.org/2000/svg" xmlns:xlink="http://www.w3.org/1999/xlink">
    <!-- Generator: Sketch 53.2 (72643) - https://sketchapp.com -->
    <title>camera-抓拍机-selected</title>
    <desc>Created with Sketch.</desc>
    <g id="摄像头样式" stroke="none" stroke-width="1" fill="none" fill-rule="evenodd">
        <g transform="translate(-343.000000, -511.000000)" id="camera-抓拍机-selected">
            <g transform="translate(343.000000, 511.000000)">
                <circle id="Oval-Copy-6" fill="#FFFFFF" cx="12" cy="12" r="12"></circle>
                <g id="枪机-(1)" transform="translate(5.000000, 5.000000)" fill="#73A441" fill-rule="nonzero">
                    <polygon id="Path" stroke="#73A441" stroke-linecap="round" stroke-linejoin="round" points="6.37339234 0.00820287891 0.281969857 8.48300309 0.949417919 8.96249163 1.69742005 9.4995188 3.77392511 10.9916872 4.52192723 11.5287143 5.1893753 12.0082029 11.2807978 3.53340267"></polygon>
                    <path d="M0.126115227,11.0243983 L3.00505391,13.1119442 C3.14040141,13.2090116 3.32770046,13.1775672 3.42476785,13.0435868 L3.82397461,12.4885254 L4.47883775,11.5780059 L1.11046064,9.13910339 L0.455597502,10.0496229 L0.0563907558,10.6046844 C-0.0406766446,10.7386647 -0.00923227541,10.9273309 0.126115227,11.0243983 Z M13.5077444,4 L13.5077444,4 C13.7795639,4 13.9999171,4.22035323 13.9999171,4.49217271 L13.9999171,9.55745019 C13.9999171,9.82926968 13.7795639,10.0496229 13.5077444,10.0496229 L13.5077444,10.0496229 C13.2359249,10.0496229 13.0155717,9.82926968 13.0155717,9.55745019 L13.0155717,4.49217271 C13.0155717,4.22035323 13.2359249,4 13.5077444,4 Z" id="Shape"></path>
                    <polygon id="Path" points="7.96899414 8.5842089 8.31193169 7.60204501 13.4361605 6.55932244 13.6324281 7.52387158"></polygon>
                </g>
            </g>
        </g>
    </g>
</svg>