<?xml version="1.0" standalone="no"?><!DOCTYPE svg PUBLIC "-//W3C//DTD SVG 1.1//EN" "http://www.w3.org/Graphics/SVG/1.1/DTD/svg11.dtd"><svg t="1561529610679" class="icon" viewBox="0 0 1024 1024" version="1.1" xmlns="http://www.w3.org/2000/svg" p-id="12377" xmlns:xlink="http://www.w3.org/1999/xlink" width="200" height="200"><defs><style type="text/css"></style></defs><path d="M436.5 808c-27.1 0-49-21.9-49-49V79.2c0-27.1 21.9-49 49-49s49 21.9 49 49V759c0 27.1-21.9 49-49 49z" fill="#686868" p-id="12378"></path><path d="M908.7 466.6H447.5c-27.1 0-49-21.9-49-49s21.9-49 49-49h358.8l-66-81.9c-14.6-18.2-14.4-44.1 0.5-62.1l64.4-77.5H449.5c-27.1 0-49-21.9-49-49s21.9-49 49-49h460.1c19 0 36.3 11 44.4 28.2 8.1 17.2 5.5 37.5-6.7 52.1l-105.5 127 105 130.4c11.8 14.7 14.2 34.9 6 51.9-8 17.1-25.2 27.9-44.1 27.9z" fill="#686868" p-id="12379"></path><path d="M224.226792 714.480577a49.1 44.8 80.367 1 0 88.336624-14.99336 49.1 44.8 80.367 1 0-88.336624 14.99336Z" fill="#686868" p-id="12380"></path><path d="M576.91987 748.697561a44.8 49.1 9.625 1 0 16.418937-96.817656 44.8 49.1 9.625 1 0-16.418937 96.817656Z" fill="#686868" p-id="12381"></path><path d="M783.7 713c-21.2-15.2-50-28.4-85.7-39.3-31.4-9.5-67.4-17.1-106.3-22.4v13.1h-7.6v84.9c23.2 3.3 45 7.6 64.8 12.6 42.8 10.8 66.2 22.7 77.2 30.4-11 7.8-34.4 19.6-77.2 30.4-55.8 14.1-127.1 21.9-200.8 21.9s-145-7.8-200.8-21.9c-42.8-10.8-66.2-22.7-77.2-30.4 11-7.8 34.4-19.6 77.2-30.4 7.6-1.9 15.5-3.7 23.6-5.4v-86H260v-11.7c-22 4.3-42.7 9.3-61.7 15.1-35.7 10.9-64.6 24.1-85.7 39.3C74.1 740.9 66 771.6 66 792.4s8.1 51.5 46.6 79.2c21.2 15.2 50 28.4 85.7 39.3 67.4 20.5 156.2 31.8 249.8 31.8s182.4-11.3 249.8-31.8c35.7-10.9 64.6-24.1 85.7-39.3 38.5-27.7 46.6-58.4 46.6-79.2s-8-51.7-46.5-79.4z" fill="#686868" p-id="12382"></path></svg>