<?xml version="1.0" standalone="no"?><!DOCTYPE svg PUBLIC "-//W3C//DTD SVG 1.1//EN" "http://www.w3.org/Graphics/SVG/1.1/DTD/svg11.dtd"><svg t="1556542643363" class="icon" style="" viewBox="0 0 1024 1024" version="1.1" xmlns="http://www.w3.org/2000/svg" p-id="6766" xmlns:xlink="http://www.w3.org/1999/xlink" width="200" height="200"><defs><style type="text/css"></style></defs><path d="M544.61428226 512.2890871L716.38458776 340.46622015c8.67261343-8.67261343 8.67261343-22.91672368-1e-8-31.64189811l-0.946103-0.94610343c-8.67261343-8.67261343-22.91672368-8.67261343-31.64189855 0L512.02628071 479.91133046 340.25597523 307.82565717C331.53080036 299.15304417 317.28669012 299.15304417 308.61407668 307.82565717l-0.94610341 0.94610342c-8.88285833 8.67261343-8.88285833 22.91672368 0 31.64189856l171.82286692 171.87542795-171.82286692 171.77030547c-8.67261343 8.67261343-8.67261343 22.91672368 0 31.64189856l0.94610341 0.94610299c8.67261343 8.67261343 22.91672368 8.67261343 31.64189855 0l171.8228665-171.8228665 171.82286694 171.8228665c8.67261343 8.67261343 22.91672368 8.67261343 31.64189855 0l0.94610341-0.94610299c8.67261343-8.67261343 8.67261343-22.91672368 0-31.64189856l-171.87542837-171.77030547z m0 0" fill="#989CA2" p-id="6767"></path></svg>