<?xml version="1.0" encoding="utf-8"?>
<!-- Generator: Adobe Illustrator 22.0.1, SVG Export Plug-In . SVG Version: 6.00 Build 0)  -->
<svg version="1.1" id="图层_1" xmlns="http://www.w3.org/2000/svg" xmlns:xlink="http://www.w3.org/1999/xlink" x="0px" y="0px"
	 viewBox="0 0 36 36" style="enable-background:new 0 0 36 36;" xml:space="preserve">
<style type="text/css">
	.st0{fill:#E72427;}
	.st1{fill:#FFFFFF;}
</style>
<title>资源 2</title>
<g id="图层_2_1_">
	<g id="图层_1-2">
		<g id="组_139">
			<path id="路径_244" class="st0" d="M0,18c0,9.9,8.1,18,18,18s18-8.1,18-18S27.9,0,18,0l0,0C8.1,0,0,8.1,0,18z"/>
		</g>
		<circle class="st1" cx="18.5" cy="7.3" r="3.3"/>
		<path class="st1" d="M12.1,21.5h-0.1c-0.8-0.1-1.4-0.8-1.3-1.6c0.6-6.1,6.6-7.6,6.9-7.6c0.8-0.2,1.6,0.2,1.9,1
			c0.2,0.8-0.2,1.6-1,1.9c-0.1,0-0.1,0-0.2,0c-0.2,0-4.2,1-4.6,5C13.5,20.9,12.9,21.5,12.1,21.5z"/>
		<path class="st1" d="M24.1,18.9c-2.9-0.1-5.6-1.5-7.4-3.9c-0.5-0.7-0.3-1.6,0.4-2.1c0.7-0.5,1.6-0.3,2.1,0.4l0,0
			c1.7,2.3,4.8,3.2,7.4,2.1c0.8-0.3,1.6,0.1,1.9,0.9c0.3,0.7,0,1.5-0.7,1.9C26.7,18.6,25.4,18.9,24.1,18.9z"/>
		<path class="st1" d="M26.5,31.1c-0.7,0-1.3-0.5-1.4-1.1c-1.9-6.4-6.7-7-6.8-7c-0.8-0.1-1.4-0.8-1.3-1.7s0.8-1.4,1.7-1.3
			c0.3,0,6.9,0.8,9.4,9.2c0.2,0.8-0.2,1.6-1,1.9C26.8,31.1,26.7,31.1,26.5,31.1z"/>
		<path class="st1" d="M10.1,31.1c-0.8,0-1.5-0.7-1.5-1.5c0-0.7,0.4-1.3,1.1-1.5c6.5-1.9,7.3-6.7,7.3-6.9c0.1-0.8,0.9-1.4,1.7-1.3
			s1.4,0.9,1.3,1.7c0,0.3-1,6.9-9.4,9.4C10.5,31.1,10.3,31.1,10.1,31.1z"/>
		<path class="st1" d="M18.8,23.4c-0.8,0-1.5-0.5-1.8-1.2C16,19.5,15.7,16.8,16,14c0.1-1.1,1.1-1.9,2.2-1.8s1.9,1.1,1.8,2.2l0,0
			c-0.2,2.1,0,4.3,0.6,6.3c0.4,1-0.1,2.2-1.1,2.6C19.3,23.3,19,23.4,18.8,23.4z"/>
	</g>
</g>
</svg>
