<svg xmlns="http://www.w3.org/2000/svg" xmlns:xlink="http://www.w3.org/1999/xlink" viewBox="0 0 36 36">
  <defs>
    <style>
      .cls-1 {
        fill: #0000ff;
      }

      .cls-2 {
        clip-path: url(#clip-path);
      }

      .cls-3 {
        fill: #0000ff;
      }

      .cls-4 {
        fill: #fff;
      }
    </style>
    <clipPath id="clip-path">
      <rect id="矩形_116" data-name="矩形 116" class="cls-1" width="36" height="36"/>
    </clipPath>
  </defs>
  <g id="组_142" data-name="组 142" transform="translate(0 -0.1)">
    <g id="组_140" data-name="组 140" transform="translate(0 0.1)">
      <g id="组_139" data-name="组 139" class="cls-2" transform="translate(0 0)">
        <path id="路径_244" data-name="路径 244" class="cls-3" d="M0,17.978A18,18,0,1,0,18,0,17.992,17.992,0,0,0,0,17.978Zm0,0" transform="translate(0 -0.004)"/>
      </g>
    </g>
    <path id="路径_245" data-name="路径 245" class="cls-4" d="M189.844,111.908c.378,1.006.224,3.97-6.84,7.11a1.656,1.656,0,1,0,1.35,3.026c5.763-2.556,7.728-5.669,8.361-7.847,2,.922,5.034,2.889,5.561,6.539a1.657,1.657,0,1,0,3.275-.47c-.739-5.169-4.761-7.847-7.434-9.072a10.008,10.008,0,0,1-.655-2.222,8.828,8.828,0,0,0,8.172.145,1.653,1.653,0,0,0-1.424-2.96c-4.053,2.029-7.232-1.8-7.342-1.976-.378-.6-1.64-.685-2.229-.575-2.462.413-6.717,2.5-6.717,7.386a1.655,1.655,0,0,0,3.31,0,3.771,3.771,0,0,1,2.207-3.324A11.151,11.151,0,0,0,189.844,111.908Zm5.983-13.266a3.345,3.345,0,1,1-.98-2.363,3.345,3.345,0,0,1,.98,2.363Zm0,0" transform="translate(-174.018 -91.019)"/>
  </g>
</svg>
