<svg xmlns="http://www.w3.org/2000/svg" viewBox="0 0 17 19">
  <defs>
    <style>
      .cls-1 {
        fill: #fff;
      }

      .cls-2 {
        fill: none;
        stroke: #fff;
        stroke-linecap: round;
        stroke-linejoin: round;
      }
    </style>
  </defs>
  <g id="组_294" data-name="组 294" transform="translate(-223.59 -287.5)">
    <g id="组_122" data-name="组 122" transform="translate(227.553 292.154)">
      <path id="路径_237" data-name="路径 237" class="cls-1" d="M11.6,11.435V11.7H10.156l.229,0H7.618l-.406,0H1.721v-.265S1.6,9.952,3.777,9.571c0,0,1.655-.225,1.772-.681,0,0,.063-.05.017-.582a3.733,3.733,0,0,0-1.134-2.1,2.013,2.013,0,0,1-.322-.931.3.3,0,0,1,.139-.25c.107-.1.075-.2.055-.315a5.162,5.162,0,0,1-.01-1.53,1.485,1.485,0,0,1,.479-.914,1.168,1.168,0,0,0,.235-.253.349.349,0,0,0,.042-.087c.035-.117-.084-.2-.06-.327s.212-.117.327-.124a6.075,6.075,0,0,1,.782,0,3.932,3.932,0,0,1,2.584.869,1.635,1.635,0,0,1,.311.632,1.48,1.48,0,0,1,.042.208,4.867,4.867,0,0,1,.042,1.069c-.008.168-.028.334-.053.5a.282.282,0,0,0,.052.238.538.538,0,0,1,.129.176.358.358,0,0,1,.013.112,2.013,2.013,0,0,1-.322.931A3.733,3.733,0,0,0,7.76,8.31c-.047.532.017.582.017.582.115.458,1.772.681,1.772.681,2.2.408,2.056,1.862,2.056,1.862Zm0,0" transform="translate(-1.72 -1.466)"/>
    </g>
    <path id="路径_2776" data-name="路径 2776" class="cls-2" d="M2632.92,6607.527H2627.7v5.225" transform="translate(-2403.605 -6319.527)"/>
    <path id="路径_2779" data-name="路径 2779" class="cls-2" d="M5.224,0H0V5.225" transform="translate(240.09 306) rotate(180)"/>
    <path id="路径_2777" data-name="路径 2777" class="cls-2" d="M5.224,0H0V5.225" transform="translate(240.09 288) rotate(90)"/>
    <path id="路径_2778" data-name="路径 2778" class="cls-2" d="M5.224,0H0V5.225" transform="translate(224.09 306) rotate(-90)"/>
  </g>
</svg>
