<?xml version="1.0" standalone="no"?><!DOCTYPE svg PUBLIC "-//W3C//DTD SVG 1.1//EN" "http://www.w3.org/Graphics/SVG/1.1/DTD/svg11.dtd"><svg class="icon" width="20px" height="20.00px" viewBox="0 0 1024 1024" version="1.1" xmlns="http://www.w3.org/2000/svg"><path fill="#ffffff" d="M1016.365631 510.71071a516.019553 516.019553 0 0 0-145.613983-359.585642A504.5929 504.5929 0 0 0 515.615322 0.05056a505.047944 505.047944 0 0 0-354.782402 150.670025 516.171234 516.171234 0 0 0-146.069027 361.355256 525.828272 525.828272 0 0 0 3.286426 58.852318c0.353923 3.336987 1.21345 6.623414 1.617934 10.112082 2.072977 15.673727 4.449316 31.246334 7.887424 46.465017 2.932504 12.892905 6.926776 25.280205 10.819928 38.223671 1.668494 5.409964 2.831383 11.02217 4.651557 16.381573a527.345085 527.345085 0 0 0 21.589296 53.037871l-54.605244 175.242384c-0.353923 1.061769 0 1.921296-0.404483 2.983064a51.066015 51.066015 0 0 0-1.870735 16.735496 28.566632 28.566632 0 0 0 1.971856 5.865008 29.830642 29.830642 0 0 0 3.79203 9.404236 27.504863 27.504863 0 0 0 5.056042 4.449316 29.325038 29.325038 0 0 0 7.584061 5.056041 39.487681 39.487681 0 0 0 7.584062 1.617934 45.50437 45.50437 0 0 0 14.359156 1.011208l184.191577-23.156668a493.419049 493.419049 0 0 0 89.643608 49.751444c2.730262 1.162889 5.359404 2.528021 8.140227 3.640349 7.027897 2.881943 14.207475 5.308843 21.387053 7.836864 4.752679 1.668494 9.404236 3.539229 14.207476 5.056041 5.966128 1.870735 12.083938 3.387548 18.100627 5.056041s12.185059 3.589789 18.403989 5.056041 11.376092 2.275218 17.089419 3.438108c6.673974 1.314571 13.297388 2.831383 20.224165 3.842592s13.347948 1.617933 20.224164 2.376339 11.780576 1.617933 17.696144 2.072977c10.112082 0.758406 20.224164 1.061769 30.690169 1.21345 2.578581 0 5.056041 0.252802 7.685182 0.252802a504.845702 504.845702 0 0 0 355.288007-151.175629 515.71619 515.71619 0 0 0 145.512862-359.636202v-1.162889c0-0.404483-0.202242-0.808967-0.202241-1.26401z m-500.548067 412.219029a389.871328 389.871328 0 0 1-224.993828-71.34074l-31.95418-22.398262-38.729275 5.056041-83.475238 10.466005 24.774601-79.329284 11.730016-37.718067-16.937738-35.69565a416.415543 416.415543 0 0 1-40.144966-179.74226 405.898978 405.898978 0 0 1 399.730608-410.904459 405.898978 405.898978 0 0 1 399.781168 410.904459 405.898978 405.898978 0 0 1-400.03397 410.702217zM524.412834 512.02528H392.24792l17.797264-143.894929h-66.234138l-40.448328 329.502197h65.728534l15.168123-123.519083h132.215474l-15.168123 123.417962h65.728534l40.448329-329.502197h-66.234139zM634.836771 697.329186h65.981336l26.695897-226.207278h-66.234138zM687.419598 373.793117a32.206982 32.206982 0 0 0-13.246828 43.279712 32.156421 32.156421 0 0 0 44.847085 6.016689 32.206982 32.206982 0 0 0 13.297388-43.279712 32.206982 32.206982 0 0 0-44.897645-6.016689z" /></svg>