<?xml version="1.0" standalone="no"?><!DOCTYPE svg PUBLIC "-//W3C//DTD SVG 1.1//EN" "http://www.w3.org/Graphics/SVG/1.1/DTD/svg11.dtd"><svg class="icon" width="20px" height="20.00px" viewBox="0 0 1024 1024" version="1.1" xmlns="http://www.w3.org/2000/svg"><path fill="#ffffff" d="M838.277235 1024H185.826031c-119.955058 0-185.773876-64.984349-185.773877-183.009694V524.674034a211.433828 211.433828 0 0 1 115.991326-188.485903l41.723498 78.909566a122.927857 122.927857 0 0 0-67.487759 109.524183v316.368426c0 68.530846 26.077186 93.877871 95.442503 93.877871h652.555513c69.573933 0 95.442502-25.503488 95.442502-93.877871v-316.264117a124.179562 124.179562 0 0 0-71.399336-111.558204l39.167934-80.369889a213.832929 213.832929 0 0 1 122.667085 191.928093v316.264117c-0.104309 118.025346-65.923127 183.009694-185.878185 183.009694z m-672.79141-400.232657h44.95707V102.901621a103.891511 103.891511 0 0 1 104.308745-102.900578h393.974133a103.943665 103.943665 0 0 1 104.308746 102.952732v520.813568h45.426458v88.662433H165.485825z m135.60137 0h422.45042V102.901621a14.081681 14.081681 0 0 0-14.133835-13.925218H315.22103a14.029526 14.029526 0 0 0-14.18599 13.873063v520.865722z m345.8878-355.797132H377.493351V178.62977h269.481644z m0 161.939328H377.493351V340.673407h269.481644z" /></svg>