<?xml version="1.0" standalone="no"?><!DOCTYPE svg PUBLIC "-//W3C//DTD SVG 1.1//EN" "http://www.w3.org/Graphics/SVG/1.1/DTD/svg11.dtd"><svg class="icon" width="200px" height="183.35px" viewBox="0 0 1117 1024" version="1.1" xmlns="http://www.w3.org/2000/svg"><path fill="#ffffff" d="M1002.889253 321.983728a376.261859 376.261859 0 0 0-275.184919-121.180642H166.35192l139.484937-119.877624a47.032732 47.032732 0 0 0 6.204846-64.282204 42.627292 42.627292 0 0 0-61.676168-6.204846L17.869956 209.738065a46.784539 46.784539 0 0 0 0 73.27923l231.813045 201.905688a42.999583 42.999583 0 0 0 28.107953 10.672335 43.806212 43.806212 0 0 0 33.940507-16.50489 47.032732 47.032732 0 0 0-5.708458-64.282204l-140.850004-122.297514h562.531335a291.62776 291.62776 0 0 1 212.70212 93.755222 332.765889 332.765889 0 0 1 0 452.581465 290.759082 290.759082 0 0 1-212.70212 93.755222H245.277561a45.729715 45.729715 0 0 0 0 91.397381h482.426773a375.703423 375.703423 0 0 0 275.184919-121.180642 427.017499 427.017499 0 0 0 0-580.959727" /></svg>