<?xml version="1.0" standalone="no"?><!DOCTYPE svg PUBLIC "-//W3C//DTD SVG 1.1//EN" "http://www.w3.org/Graphics/SVG/1.1/DTD/svg11.dtd"><svg class="icon" width="200px" height="200.00px" viewBox="0 0 1024 1024" version="1.1" xmlns="http://www.w3.org/2000/svg"><path fill="#ffffff" d="M1005.151579 908.815204l-204.797465-204.797465a457.046657 457.046657 0 0 0 83.219638-262.389862 441.560088 441.560088 0 1 0-441.560089 441.560088 472.698562 472.698562 0 0 0 262.389863-83.219637l204.797465 204.797464a61.836048 61.836048 0 0 0 89.612669 0 64.150767 64.150767 0 0 0 6.337919-95.950588zM442.013663 774.396201a330.674055 330.674055 0 0 1-332.768324-332.768324 330.674055 330.674055 0 0 1 332.768324-332.768325 330.674055 330.674055 0 0 1 332.768325 332.768325 330.674055 330.674055 0 0 1-332.768325 332.768324z" /></svg>