<?xml version="1.0" standalone="no"?><!DOCTYPE svg PUBLIC "-//W3C//DTD SVG 1.1//EN" "http://www.w3.org/Graphics/SVG/1.1/DTD/svg11.dtd"><svg class="icon" width="200px" height="200.00px" viewBox="0 0 1024 1024" version="1.1" xmlns="http://www.w3.org/2000/svg"><path fill="#ffffff" d="M516.957862 0.000554a515.097448 515.097448 0 0 0-339.246965 131.403539L167.969101 50.59147A45.77537 45.77537 0 0 0 111.289562 5.092856a45.77537 45.77537 0 0 0-45.498614 56.513485l11.070223 136.219087a126.587993 126.587993 0 0 0 127.307557 115.573122h10.184605l136.495842-10.184605a45.77537 45.77537 0 0 0 45.498614-56.513485 45.77537 45.77537 0 0 0-56.513485-45.498614l-101.237184 5.092302a419.340024 419.340024 0 0 1 272.991684-106.274135 404.339873 404.339873 0 1 1-404.063117 405.446895 47.76801 47.76801 0 0 0-50.590917-50.590916 47.76801 47.76801 0 0 0-50.81232 50.646267 505.521706 505.521706 0 1 0 1010.711305 0A499.26703 499.26703 0 0 0 516.957862 0.000554z m0 0" /></svg>