<?xml version="1.0" standalone="no"?><!DOCTYPE svg PUBLIC "-//W3C//DTD SVG 1.1//EN" "http://www.w3.org/Graphics/SVG/1.1/DTD/svg11.dtd"><svg class="icon" width="200px" height="200.00px" viewBox="0 0 1024 1024" version="1.1" xmlns="http://www.w3.org/2000/svg"><path fill="#ffffff" d="M247.9104 536.3712h361.8304a56.9344 56.9344 0 1 1 0 113.92H247.9104a56.9344 56.9344 0 1 1 0-113.92z m492.2368 369.3056a4.4032 4.4032 0 0 1-4.4032 4.4032H118.3232a4.4032 4.4032 0 0 1-4.4032-4.4032V288.4096a4.4032 4.4032 0 0 1 4.4032-4.4032H735.744a4.4032 4.4032 0 0 1 4.4032 4.4032v617.2672z m113.92-617.2672a118.3232 118.3232 0 0 0-118.3232-118.272H118.3232a118.3232 118.3232 0 0 0-118.272 118.272v617.2672a118.3232 118.3232 0 0 0 118.3232 118.272H735.744a118.3232 118.3232 0 0 0 118.3232-118.272zM283.8016 113.8688h626.5856V740.352a56.9856 56.9856 0 0 0 113.92 0V113.8688a113.92 113.92 0 0 0-113.92-113.92H283.8016a56.9344 56.9344 0 1 0 0 113.92z" /></svg>