<?xml version="1.0" standalone="no"?><!DOCTYPE svg PUBLIC "-//W3C//DTD SVG 1.1//EN" "http://www.w3.org/Graphics/SVG/1.1/DTD/svg11.dtd"><svg class="icon" width="200px" height="185.84px" viewBox="0 0 1102 1024" version="1.1" xmlns="http://www.w3.org/2000/svg"><path fill="#ffffff" d="M511.985778 630.169162h78.788923a39.366018 39.366018 0 0 0 0-78.788923H511.985778a39.366018 39.366018 0 0 0 0 78.788923z m0 157.520958h78.788923a39.366018 39.366018 0 1 0 0-78.788923H511.985778a39.366018 39.366018 0 1 0 0 78.788923z m433.196856-708.872754h-157.520958V39.394461a39.366018 39.366018 0 1 0-78.788922 0v39.366018H393.830838V39.394461a39.366018 39.366018 0 1 0-78.788922 0v39.366018H157.520958A157.976056 157.976056 0 0 0 0 236.338324v630.140718A157.976056 157.976056 0 0 0 157.520958 1024h787.661676a157.976056 157.976056 0 0 0 157.520958-157.520958V236.338324a157.976056 157.976056 0 0 0-157.520958-157.520958zM1023.971556 866.479042a79.016472 79.016472 0 0 1-78.788922 78.788923H157.520958a79.016472 79.016472 0 0 1-78.788923-78.788923V393.859282H1023.971556z m0-551.351796H78.788923V236.338324a79.016472 79.016472 0 0 1 78.732035-78.788923h157.520958v39.366018a39.366018 39.366018 0 0 0 78.788922 0v-39.366018h315.041916v39.366018a39.366018 39.366018 0 1 0 78.788922 0v-39.366018h157.520958A79.016472 79.016472 0 0 1 1023.971556 236.338324v78.732035zM275.675898 787.69012h78.788922a39.366018 39.366018 0 1 0 0-78.788923H275.675898a39.366018 39.366018 0 1 0 0 78.788923z m472.61976-157.520958h78.788923a39.366018 39.366018 0 0 0 0-78.788923h-78.788923a39.366018 39.366018 0 0 0 0 78.788923z m-472.61976 0h78.788922a39.366018 39.366018 0 1 0 0-78.788923H275.675898a39.366018 39.366018 0 0 0 0 78.788923z m472.61976 157.520958h78.788923a39.366018 39.366018 0 0 0 0-78.788923h-78.788923a39.366018 39.366018 0 0 0 0 78.788923z" /></svg>