<?xml version="1.0" standalone="no"?><!DOCTYPE svg PUBLIC "-//W3C//DTD SVG 1.1//EN" "http://www.w3.org/Graphics/SVG/1.1/DTD/svg11.dtd"><svg class="icon" width="200px" height="199.80px" viewBox="0 0 1025 1024" version="1.1" xmlns="http://www.w3.org/2000/svg"><path fill="#ffffff" d="M635.810304 83.665984a247.467093 247.467093 0 0 1 234.878817 206.324921h-68.928489l111.196442 165.540952 111.298785-165.438608h-76.757783A325.14597 325.14597 0 0 0 643.588426 1.739843a40.579281 40.579281 0 0 0-42.21678 40.937484 42.267953 42.267953 0 0 0 34.438658 40.988657zM463.514667 0.102344H76.808955a40.579281 40.579281 0 0 0-39.095298 42.728499v368.437359a40.579281 40.579281 0 0 0 39.095298 42.7285h386.705712a40.579281 40.579281 0 0 0 39.095298-42.7285v-368.437359a40.579281 40.579281 0 0 0-39.095298-42.728499z m-37.560142 371.814702H114.420269V81.977312h311.6366v289.939734zM388.394383 938.184798a247.313578 247.313578 0 0 1-239.586627-247.262405h73.533956l-111.042926-165.438609-111.349958 165.438609h73.6363a326.118235 326.118235 0 0 0 307.031133 329.239718 41.244516 41.244516 0 0 0 7.778122-81.874969z m560.638849-370.074858h-386.808056a40.579281 40.579281 0 0 0-39.095297 42.728499v370.177202a40.425766 40.425766 0 0 0 39.095297 42.523812h386.705712a40.52811 40.52811 0 0 0 39.095298-42.523812v-370.38189a41.705062 41.705062 0 0 0-39.044126-42.626155z m-37.560142 371.865873h-311.790116v-288.455749h311.585428v288.353406z" /></svg>