<?xml version="1.0" standalone="no"?><!DOCTYPE svg PUBLIC "-//W3C//DTD SVG 1.1//EN" "http://www.w3.org/Graphics/SVG/1.1/DTD/svg11.dtd"><svg class="icon" width="200px" height="164.76px" viewBox="0 0 1243 1024" version="1.1" xmlns="http://www.w3.org/2000/svg"><path fill="#ffffff" d="M146.349937 0h950.873795A152.236169 152.236169 0 0 1 1243.476142 157.559384v708.881232a152.236169 152.236169 0 0 1-146.25241 157.559384H146.349937A152.236169 152.236169 0 0 1 0.097528 866.440616V157.559384A152.236169 152.236169 0 0 1 146.349937 0z m64.383699 409.615542a79.731654 79.731654 0 0 0-79.731654 79.653943v45.266752a79.731654 79.731654 0 0 0 79.731654 79.731654h298.56629a79.731654 79.731654 0 0 0 79.731653-79.731654v-45.266752a79.731654 79.731654 0 0 0-79.731653-79.731654z m541.957653 204.768916a102.462169 102.462169 0 1 0-98.032632-102.384458 100.325112 100.325112 0 0 0 98.032632 102.345602z m261.692343 0a102.462169 102.462169 0 1 0-98.110344-102.384458 100.363968 100.363968 0 0 0 98.110344 102.384458z" /></svg>