<?xml version="1.0" standalone="no"?><!DOCTYPE svg PUBLIC "-//W3C//DTD SVG 1.1//EN" "http://www.w3.org/Graphics/SVG/1.1/DTD/svg11.dtd"><svg class="icon" width="200px" height="200.00px" viewBox="0 0 1024 1024" version="1.1" xmlns="http://www.w3.org/2000/svg"><path fill="#ffffff" d="M170.7091 0v386.164097a63.649925 63.649925 0 0 0 68.29637 57.730483h546.11636a63.649925 63.649925 0 0 0 68.23272-57.730483V0a170.64545 170.64545 0 0 1 170.64545 170.64545v682.7091a170.64545 170.64545 0 0 1-170.64545 170.64545H170.7091A170.64545 170.64545 0 0 1 0.06365 853.35455V170.7091A170.64545 170.64545 0 0 1 170.7091 0z m68.29637 0h546.11636v375.53456h-546.11636z m443.70363 136.52909a34.11636 34.11636 0 0 0-34.11636 34.11636V273.05818a34.11636 34.11636 0 1 0 68.29637 0V170.7091a34.11636 34.11636 0 0 0-34.24366-34.18001z" /></svg>