<?xml version="1.0" standalone="no"?><!DOCTYPE svg PUBLIC "-//W3C//DTD SVG 1.1//EN" "http://www.w3.org/Graphics/SVG/1.1/DTD/svg11.dtd"><svg class="icon" width="200px" height="200.00px" viewBox="0 0 1024 1024" version="1.1" xmlns="http://www.w3.org/2000/svg"><path fill="#ffffff" d="M819.065677 1023.970442H200.342745a128.003147 128.003147 0 0 1-128.003147-128.003148V481.688132a123.323109 123.323109 0 0 1 123.788376-132.327393h62.400508a142.316948 142.316948 0 0 1-4.24214-42.147712v-49.263558a255.978926 255.978926 0 1 1 511.930484-1.970543v60.211017a89.249148 89.249148 0 0 1-4.24214 33.170796h61.333131a128.003147 128.003147 0 0 1 128.003147 128.003147v414.361269a123.323109 123.323109 0 0 1-123.733638 132.272656z m-360.007141-205.264829a51.562525 51.562525 0 0 0 51.288838 51.617262 49.263559 49.263559 0 0 0 51.124627-51.206733v-94.859719a36.646614 36.646614 0 0 1 14.423275-29.202343 98.527118 98.527118 0 0 0 36.783458-80.682762 102.413465 102.413465 0 0 0-204.799562 0A98.527118 98.527118 0 0 0 444.63526 695.163554a36.646614 36.646614 0 0 1 14.423276 29.202343z m200.530053-562.67195a149.378058 149.378058 0 1 0-298.701379-2.736864v76.002724a19.97911 19.97911 0 0 0 19.97911 19.97911h258.633685a19.97911 19.97911 0 0 0 19.97911-19.97911z m4.24214 0" /></svg>