<?xml version="1.0" standalone="no"?><!DOCTYPE svg PUBLIC "-//W3C//DTD SVG 1.1//EN" "http://www.w3.org/Graphics/SVG/1.1/DTD/svg11.dtd"><svg class="icon" width="200px" height="200.00px" viewBox="0 0 1024 1024" version="1.1" xmlns="http://www.w3.org/2000/svg"><path fill="#ffffff" d="M1024.174649 945.208889A73.955556 73.955556 0 0 1 955.907982 1024H68.441316A73.955556 73.955556 0 0 1 0.174649 945.208889V551.367111A87.552 87.552 0 0 1 9.618204 512 87.552 87.552 0 0 1 0.174649 472.576V78.734222A73.955556 73.955556 0 0 1 68.441316-0.056889h887.466666A73.955556 73.955556 0 0 1 1024.174649 78.734222v393.841778a87.552 87.552 0 0 1-9.443556 39.367111 87.552 87.552 0 0 1 9.443556 39.367111zM955.907982 118.158222a37.034667 37.034667 0 0 0-34.133333-39.367111H102.574649a37.034667 37.034667 0 0 0-34.133333 39.367111v315.050667a37.034667 37.034667 0 0 0 34.133333 39.367111h819.2a37.034667 37.034667 0 0 0 34.133333-39.367111z m0 472.632889a37.034667 37.034667 0 0 0-34.133333-39.367111H102.574649a37.034667 37.034667 0 0 0-34.133333 39.367111v315.050667a37.034667 37.034667 0 0 0 34.133333 39.367111h819.2a37.034667 37.034667 0 0 0 34.133333-39.367111z m-153.6 196.949333H256.174649a18.545778 18.545778 0 0 1-17.066667-19.683555v-39.367111a18.545778 18.545778 0 0 1 17.066667-19.683556h546.133333a18.545778 18.545778 0 0 1 17.066667 19.683556v39.367111a18.545778 18.545778 0 0 1-17.066667 19.626667z m0-472.632888h-204.8a18.545778 18.545778 0 0 1-17.066666-19.683556v-39.367111a18.545778 18.545778 0 0 1 17.066666-19.683556h204.8a18.545778 18.545778 0 0 1 17.066667 19.683556v39.367111a18.545778 18.545778 0 0 1-17.066667 19.626667z m-341.333333 0H256.174649a18.545778 18.545778 0 0 1-17.066667-19.683556v-39.367111a18.545778 18.545778 0 0 1 17.066667-19.683556h204.8a18.545778 18.545778 0 0 1 17.066667 19.683556v39.367111a18.545778 18.545778 0 0 1-17.066667 19.626667z" /></svg>