<svg xmlns="http://www.w3.org/2000/svg" width="17.409" height="19.619" viewBox="0 0 17.409 19.619"><defs><style>.a{}.b{fill:none;}.b,.c{stroke:#94a5c7;}.c{fill:#fff;}</style></defs><g transform="translate(0 0.5)"><rect class="a" width="17.409" height="11.858" rx="1" transform="translate(0 7.261)"/><path class="b" d="M-2775.884,11.323V9.092c0-2.348,2.35-4.252,5.249-4.252s5.248,1.9,5.248,4.252v2.231" transform="translate(2779.456 -4.84)"/><path class="c" d="M1.006,5.911V4.3A2.382,2.382,0,0,1,0,2.306,2.174,2.174,0,0,1,2.012,0,2.174,2.174,0,0,1,4.024,2.306a2.383,2.383,0,0,1-1.006,2V5.911a1.006,1.006,0,1,1-2.011,0Z" transform="translate(6.692 10.225)"/></g></svg>