<?xml version="1.0" standalone="no"?><!DOCTYPE svg PUBLIC "-//W3C//DTD SVG 1.1//EN" "http://www.w3.org/Graphics/SVG/1.1/DTD/svg11.dtd"><svg class="icon" width="20px" height="15.34px" viewBox="0 0 1335 1024" version="1.1" xmlns="http://www.w3.org/2000/svg"><path fill="#ffffff" d="M210.598611 205.669939a235.118535 205.728718 0 1 0 470.23707 0 235.118535 205.728718 0 1 0-470.23707 0ZM974.79263 176.280122m-176.338902 0a176.338901 176.338901 0 1 0 352.677803 0 176.338901 176.338901 0 1 0-352.677803 0ZM957.217519 429.973021h-12.461282a386.182194 386.182194 0 0 0-309.88623 155.178233 414.749096 414.749096 0 0 0-186.919235-36.031915 432.030308 432.030308 0 0 0-447.84203 413.455944 58.779634 58.779634 0 0 0 56.25211 61.189598 57.7216 57.7216 0 0 0 61.189599-56.310889 316.528328 316.528328 0 0 1 330.400321-300.892945 315.470294 315.470294 0 0 1 174.457953 45.612996c1.52827 0.999254 2.468745 2.527524 4.114574 3.350439s1.58705 0.352678 2.292406 0.705356a313.00155 313.00155 0 0 1 145.068136 251.224154 58.779634 58.779634 0 0 0 58.779634 56.310889h2.468745a58.779634 58.779634 0 0 0 56.310889-61.189598 433.264681 433.264681 0 0 0-156.001148-314.764939 270.386315 270.386315 0 0 1 211.606681-100.278055h8.758166a261.804489 261.804489 0 0 1 261.216692 255.16239 58.779634 58.779634 0 0 0 58.779634 57.368922h1.469491a58.779634 58.779634 0 0 0 57.310143-60.131565 379.069858 379.069858 0 0 0-377.365249-369.959015z" /></svg>