<?xml version="1.0" standalone="no"?><!DOCTYPE svg PUBLIC "-//W3C//DTD SVG 1.1//EN" "http://www.w3.org/Graphics/SVG/1.1/DTD/svg11.dtd"><svg class="icon" width="20px" height="20.00px" viewBox="0 0 1024 1024" version="1.1" xmlns="http://www.w3.org/2000/svg"><path fill="#ffffff" d="M81.750972 454.796684h459.84998a56.293723 56.293723 0 0 0 56.142124-56.192657v-342.512436a56.24319 56.24319 0 0 0-56.142124-56.142124h-459.84998a56.192657 56.192657 0 0 0-56.142124 56.142124v342.512436a56.24319 56.24319 0 0 0 56.142124 56.192657z m44.923806-353.730754h369.800237v252.664824h-369.800237zM25.608848 568.697987m56.142124 0l173.6818 0q56.142124 0 56.142124 56.142124l0 342.562968q0 56.142124-56.142124 56.142124l-173.6818 0q-56.142124 0-56.142124-56.142124l0-342.562968q0-56.142124 56.142124-56.142124ZM941.771501 568.697987h-459.84998a56.24319 56.24319 0 0 0-56.142124 56.192657v342.512435a56.192657 56.192657 0 0 0 56.142124 56.142124h459.84998a56.24319 56.24319 0 0 0 56.142124-56.142124v-342.512435a56.293723 56.293723 0 0 0-56.142124-56.192657z m-44.923806 353.730754h-369.800237v-252.664825h369.800237zM711.947577 0.101066m56.142124 0l173.6818 0q56.142124 0 56.142124 56.142124l0 342.562969q0 56.142124-56.142124 56.142124l-173.6818 0q-56.142124 0-56.142124-56.142124l0-342.562969q0-56.142124 56.142124-56.142124Z" /></svg>