<?xml version="1.0" standalone="no"?><!DOCTYPE svg PUBLIC "-//W3C//DTD SVG 1.1//EN" "http://www.w3.org/Graphics/SVG/1.1/DTD/svg11.dtd"><svg class="icon" width="200px" height="200.00px" viewBox="0 0 1024 1024" version="1.1" xmlns="http://www.w3.org/2000/svg"><path fill="#ffffff" d="M512 938.65824a426.65824 426.65824 0 1 1 426.65824-426.65824 427.163819 427.163819 0 0 1-426.65824 426.65824z m0-938.65824a512 512 0 1 0 512 512A512.556137 512.556137 0 0 0 512 0z m42.67088 503.809618v-247.733781a42.721438 42.721438 0 1 0-85.392318 0v265.429051a42.519206 42.519206 0 0 0 12.538363 30.334749l143.02834 143.02834a42.67088 42.67088 0 0 0 60.315592-60.315592z" /></svg>