<svg xmlns="http://www.w3.org/2000/svg" width="18.465" height="18.886" viewBox="0 0 18.465 18.886"><defs><style>.a{fill:#94a5c7;}</style></defs><path class="a" d="M-2882.242-140.609a10.486,10.486,0,0,1,.807-3.921c.565-1.158,2.929-1.961,5.9-3.084.8-.3.67-2.448.314-2.848a6.14,6.14,0,0,1-1.541-4.7,4.015,4.015,0,0,1,.954-3,3.833,3.833,0,0,1,2.8-1.334,3.836,3.836,0,0,1,2.8,1.332,4.017,4.017,0,0,1,.955,3,6.137,6.137,0,0,1-1.541,4.7c-.355.4-.487,2.543.315,2.848,2.968,1.124,5.331,1.926,5.9,3.084a10.481,10.481,0,0,1,.807,3.921Z" transform="translate(2882.242 159.495)"/></svg>