<?xml version="1.0" standalone="no"?><!DOCTYPE svg PUBLIC "-//W3C//DTD SVG 1.1//EN" "http://www.w3.org/Graphics/SVG/1.1/DTD/svg11.dtd"><svg class="icon" width="200px" height="200.00px" viewBox="0 0 1024 1024" version="1.1" xmlns="http://www.w3.org/2000/svg"><path d="M512 0A512 512 0 1 1 0 512 512 512 0 0 1 512 0z" fill="#FFFFFF" /><path d="M651.2 699.168a21.024 21.024 0 0 0 14.88-35.904l-138.656-138.656 138.656-138.656a21.056 21.056 0 1 0-29.76-29.76l-142.368 142.368a36.832 36.832 0 0 0 0 52.064l142.368 142.368a20.96 20.96 0 0 0 14.88 6.176z" fill="#6F7E90" /><path d="M504.192 699.168a21.024 21.024 0 0 0 14.88-35.904l-138.656-138.656 138.656-138.656a21.056 21.056 0 1 0-29.76-29.76l-142.368 142.368a36.736 36.736 0 0 0 0 52.064l142.4 142.368a20.96 20.96 0 0 0 14.848 6.176z" fill="#6F7E90" /></svg>