<svg xmlns="http://www.w3.org/2000/svg" width="215.935" height="180" viewBox="0 0 215.935 180">
  <defs>
    <style>
      .cls-1, .cls-2, .cls-3 {
        fill: #cdd5e4;
      }

      .cls-2 {
        opacity: 0.1;
      }

      .cls-3 {
        opacity: 0.5;
      }

      .cls-4 {
        fill: #e7eaef;
      }

      .cls-5 {
        fill: #ebeef4;
      }

      .cls-6 {
        fill: #fff;
      }
    </style>
  </defs>
  <g id="组_14543" data-name="组 14543" transform="translate(-104.42 -38.636)">
    <path id="路径_25199" data-name="路径 25199" class="cls-1" d="M319.069,1012.635H305.552a1.36,1.36,0,0,1,0-2.717h13.517a1.36,1.36,0,0,1,0,2.717Zm-23.348,0H115.915a1.36,1.36,0,0,1,0-2.717H295.721a1.36,1.36,0,0,1,0,2.717Zm-185.667,0h-4.348a1.36,1.36,0,0,1,0-2.717h4.348a1.36,1.36,0,0,1,0,2.717Z" transform="translate(0 -793.999)"/>
    <path id="路径_25200" data-name="路径 25200" class="cls-1" d="M126.264,129.678a2.591,2.591,0,0,0-2.813-2.346,2.67,2.67,0,0,0-1.743.922,2.48,2.48,0,0,0-.58,1.876,2.654,2.654,0,0,0,.937,1.739,2.39,2.39,0,0,0,1.642.615h.205a2.588,2.588,0,0,0,2.352-2.806Zm-1.58,2.075a2.107,2.107,0,0,1-2.326-.254,1.92,1.92,0,0,1-.739-1.419,2.1,2.1,0,0,1,.473-1.544,1.931,1.931,0,0,1,1.426-.737h.188a2.1,2.1,0,0,1,.978,3.955ZM330.407,58.376a3.585,3.585,0,0,0-3.893-3.245,3.691,3.691,0,0,0-2.412,1.275,3.433,3.433,0,0,0-.8,2.6,3.674,3.674,0,0,0,1.3,2.406,3.307,3.307,0,0,0,2.272.851h.284a3.582,3.582,0,0,0,3.254-3.883Zm-2.186,2.871A2.916,2.916,0,0,1,325,60.9a2.655,2.655,0,0,1-1.023-1.964,2.9,2.9,0,0,1,.654-2.137,2.672,2.672,0,0,1,1.974-1.02h.261a2.9,2.9,0,0,1,1.353,5.473ZM129.227,49.772a.556.556,0,0,1-.557-.556V45.622l-2.544,2.538a.57.57,0,0,1-.808-.805l2.545-2.538h-3.609a.558.558,0,1,1,0-1.117h3.609l-2.545-2.508a.571.571,0,1,1,.808-.805l2.544,2.514V39.307a.556.556,0,1,1,1.089,0V42.9l2.569-2.538a.571.571,0,1,1,.808.805l-2.545,2.539h3.6a.558.558,0,1,1,0,1.116h-3.6l2.545,2.539a.57.57,0,0,1-.808.8l-2.569-2.544v3.594c.061.311-.25.556-.556.556h.025Zm5.655,152.278h-1.54v-1.536a.463.463,0,0,0-.927,0v1.536h-1.54a.462.462,0,1,0,0,.924h1.54v1.536a.461.461,0,0,0,.461.46l0-.02a.459.459,0,0,0,.461-.46v-1.515h1.54a.462.462,0,1,0,0-.925Zm187.346-7.438c0,3.045-2.067,5.44-4.623,5.44,2.564,0,4.623,2.436,4.623,5.44,0-3.045,2.067-5.44,4.623-5.44C324.287,200.051,322.228,197.616,322.228,194.611Zm0,0" transform="translate(-13.472)"/>
    <path id="路径_25201" data-name="路径 25201" class="cls-2" d="M384.048,129.231H279.072a27.1,27.1,0,0,0-26.967,27.31V263.1a27.041,27.041,0,0,0,26.967,27.065H384.289c14.687,0,26.725-12.191,26.725-27.31V156.541a27.1,27.1,0,0,0-26.966-27.31Z" transform="translate(-119.189 -73.115)"/>
    <path id="路径_25202" data-name="路径 25202" class="cls-3" d="M266.482,263.1V156.541c0-15.118,12.959-27.31,29.028-27.31H281.133c-16.069,0-29.028,12.192-29.028,27.31V263.1c0,14.874,12.959,27.065,29.028,27.065H295.51C279.441,290.162,266.482,277.971,266.482,263.1Z" transform="translate(-119.189 -73.115)"/>
    <path id="路径_25203" data-name="路径 25203" class="cls-1" d="M378.67,285.838H273.327a28.349,28.349,0,0,1-28.263-28.371V150.806a28.62,28.62,0,0,1,8.265-20.248,27.912,27.912,0,0,1,20-8.368h105.1a27.911,27.911,0,0,1,20,8.368,28.621,28.621,0,0,1,8.264,20.248V210.2a1.264,1.264,0,1,1-2.527,0V150.806a25.927,25.927,0,0,0-25.735-26.057h-105.1a25.927,25.927,0,0,0-25.736,26.057V257.467a25.8,25.8,0,0,0,25.736,25.812H378.67c14.057,0,25.494-11.689,25.494-26.057v-9.374a1.264,1.264,0,1,1,2.527,0v9.374c0,15.779-12.57,28.616-28.021,28.616Z" transform="translate(-113.507 -67.432)"/>
    <path id="路径_25204" data-name="路径 25204" class="cls-1" d="M1132.955,650.032a1.358,1.358,0,0,1-1.359-1.358V637.291a1.358,1.358,0,1,1,2.717,0v11.382A1.358,1.358,0,0,1,1132.955,650.032Z" transform="translate(-841.13 -488.678)"/>
    <path id="路径_25205" data-name="路径 25205" class="cls-4" d="M553.229,495.779H634.34v61.745H553.229Z" transform="translate(-369.369 -375.894)"/>
    <path id="路径_25206" data-name="路径 25206" class="cls-4" d="M452.883,586.1H507.1v59.807H452.883Z" transform="translate(-285.925 -451.957)"/>
    <path id="路径_25207" data-name="路径 25207" class="cls-1" d="M500.037,639.064H441.731v-64.11h15.7v4.3h-11.4v55.5h49.7v-7.529h4.3v11.833Zm0,0" transform="translate(-276.883 -442.96)"/>
    <path id="路径_25208" data-name="路径 25208" class="cls-1" d="M581.024,831.493h-4.518l-34.427-10.111.912-4.393h4.3l-.912,1.167,30.339,8.821V821.6h4.3v9.9Zm0,0" transform="translate(-358.637 -637.327)"/>
    <path id="路径_25209" data-name="路径 25209" class="cls-1" d="M674.874,651.251l-19.147-19.146H628.621l-11.838-11.833,10.978-10.757,4.733,4.734h28.828l25.816,25.816-3.012,3.012L659.6,618.552H630.557l-2.8-2.8-4.739,4.518,7.535,7.529h26.892l20.438,20.438Zm0,0" transform="translate(-421.116 -468.245)"/>
    <path id="路径_25210" data-name="路径 25210" class="cls-1" d="M611.4,552.38l-9.035-9.036H575.251l-19.794-20.007,3.012-3.012,18.721,18.717h26.893l10.327,10.326Zm-48.626-35.066L555.457,510l3.012-3.227,4.3,4.3,4.518-4.518-11.833-12.05,3.012-3.011,15.059,15.061Zm71.86,13.768L613.979,510.43H584.936l-19.8-19.795,3.012-3.012,18.722,18.5H615.7l21.943,21.944Zm-19.362-40.5,3.042-3.042,19.319,19.321-3.042,3.042Zm0,0" transform="translate(-371.255 -369.287)"/>
    <path id="路径_25211" data-name="路径 25211" class="cls-1" d="M627.493,550.678H542.079V484.631h85.414Zm-81.111-4.3H623.19V488.933H546.382Zm0,0" transform="translate(-360.403 -366.962)"/>
    <path id="路径_25212" data-name="路径 25212" class="cls-5" d="M713.987,291.741a25.891,25.891,0,0,0-25.815,25.816c0,22.161,21.943,25.173,23.879,47.761a1.936,1.936,0,1,0,3.873,0c1.936-22.589,23.88-25.6,23.88-47.761A26.032,26.032,0,0,0,713.987,291.741Zm0,33.991a8.175,8.175,0,0,1,0-16.35,8.037,8.037,0,0,1,8.175,8.175A8.171,8.171,0,0,1,713.987,325.732Z" transform="translate(-478.871 -208.583)"/>
    <path id="路径_25213" data-name="路径 25213" class="cls-6" d="M778.775,392.672a10.329,10.329,0,0,1-10.326-10.326,10.326,10.326,0,1,1,10.326,10.326Zm0-16.565a6.024,6.024,0,0,0,0,12.047,6.024,6.024,0,1,0,0-12.047Zm0,0" transform="translate(-543.408 -272.9)"/>
    <path id="路径_25214" data-name="路径 25214" class="cls-1" d="M705.888,359.292a4.2,4.2,0,0,1-4.087-3.873c-.861-10.326-6.024-16.135-11.617-22.373-6.023-6.672-12.047-13.341-12.047-25.6a27.967,27.967,0,0,1,55.935,0c0,12.262-6.239,18.932-12.048,25.6-5.593,6.239-10.971,12.047-11.617,22.373C709.761,357.786,708.04,359.292,705.888,359.292Zm0-75.3a23.734,23.734,0,0,0-23.664,23.665c0,10.542,5.378,16.35,10.972,22.806,5.594,6.023,11.187,12.478,12.693,23.019,1.507-10.757,7.1-17,12.693-23.019,5.594-6.241,10.972-12.265,10.972-22.806A23.874,23.874,0,0,0,705.888,283.993Zm0,0" transform="translate(-470.829 -198.635)"/>
  </g>
</svg>
