<?xml version="1.0" standalone="no"?><!DOCTYPE svg PUBLIC "-//W3C//DTD SVG 1.1//EN" "http://www.w3.org/Graphics/SVG/1.1/DTD/svg11.dtd"><svg class="icon" width="20px" height="20.00px" viewBox="0 0 1024 1024" version="1.1" xmlns="http://www.w3.org/2000/svg"><path fill="#ffffff" d="M960.312312 112.096096H358.702703v-48.528528A63.615616 63.615616 0 0 0 295.135135 0H231.711712a63.615616 63.615616 0 0 0-63.51952 63.567568v48.528528H63.591592A63.615616 63.615616 0 0 0 0.072072 175.663664v672.672672a63.567568 63.567568 0 0 0 63.567568 63.567568h104.552552v48.528528a63.567568 63.567568 0 0 0 63.567568 63.567568h63.423423a63.615616 63.615616 0 0 0 63.567568-63.567568v-48.528528h601.561561a63.615616 63.615616 0 0 0 63.567568-63.567568v-672.672672a63.663664 63.663664 0 0 0-63.567568-63.567568z m-7.495495 71.063063V840.840841H358.702703V183.159159z m-784.624625 0V840.840841H71.087087V183.159159zM764.084084 672.528529h-280.264264a35.603604 35.603604 0 0 0-34.258258 36.852852 35.603604 35.603604 0 0 0 34.258258 34.258259h280.216216a35.555556 35.555556 0 0 0 36.804805-34.258259 35.603604 35.603604 0 0 0-34.21021-36.852852H764.084084z m-280.216216-41.033034h392.312312a35.507508 35.507508 0 0 0 35.507508-35.507507 35.555556 35.555556 0 0 0-35.507508-35.555556h-392.36036a35.555556 35.555556 0 0 0-35.555556 35.555556 35.507508 35.507508 0 0 0 35.555556 35.507507z m35.411411-112.096096h224.192192a63.615616 63.615616 0 0 0 63.567568-63.567567v-111.951952a63.663664 63.663664 0 0 0-63.567568-63.567568h-224.096096a63.615616 63.615616 0 0 0-63.567567 63.567568V455.975976a63.567568 63.567568 0 0 0 63.567567 63.567568z m7.495496-71.063063v-97.057057h209.153153v97.057057z" /></svg>