<svg xmlns="http://www.w3.org/2000/svg" width="79.881" height="79.094" viewBox="0 0 79.881 79.094"><defs><style>.a{opacity:0.3;}.b{fill:none;stroke:#6775a7;stroke-width:2px;}</style></defs><g class="a" transform="translate(-4143.996 -2375.452)"><path class="b" d="M4173.777,2452.632v-15.293s-15.139,1.993-15.458,8.745c-.164,3.511,5.89,6.281,14.3,8.208a98.072,98.072,0,0,0,22.319,2.2c14.252-.359,36.618-3.548,36.609-10.408,0-5.021-12.01-8.608-12.01-8.608s-1.519-.574-1.555-.579c-.133-.015,0,16.531,0,16.531" transform="translate(-8.673 -33.63)"/><path class="b" d="M4158.316,2460.226v30.694s6.349,10.439,37.948,9.876,35.076-9.876,35.076-9.876v-29.76" transform="translate(-8.674 -47.273)"/><path class="b" d="M3841.374,2118.483c.062-.063-11.518,0-11.518,0s-9.573-.365-16.8,11.978,6.509-.733,6.509-.733,9.308-6.628,11.652,2.848v53.753h7.413v-53.753s-.116-5.02,4.277-5.806,4.476,3.69,4.476,3.69h5.166v-12.644h-4.336s-.359,3.237-2.991,3.626S3841.311,2118.545,3841.374,2118.483Z" transform="translate(334 261.141)"/><path class="b" d="M3925.988,2115.691v11.81h10.462v-11.81a11.139,11.139,0,0,1,7.1,6.477c2.49,5.469.712,14.013-6.468,16.271,0,.206,0,47.549,0,47.549h-11.091v-47.549s-9.779-2.027-7.568-14.455C3920.631,2116.219,3925.988,2115.691,3925.988,2115.691Z" transform="translate(272.263 261)"/></g></svg>