<svg xmlns="http://www.w3.org/2000/svg" width="62.984" height="91.173" viewBox="0 0 62.984 91.173"><defs><style>.a{opacity:0.3;}.b,.c{fill:none;stroke:#6775a7;stroke-width:2px;}.b{stroke-linecap:round;}</style></defs><g class="a" transform="translate(-2879.099 -2398.408)"><g transform="translate(2880.099 2399.409)"><path class="b" d="M2895.175,2466.776v16.28l13.11,16.249h17.422l13.717-16.249v-16.28" transform="translate(-2887.115 -2432.127)"/><path class="b" d="M2935.223,2426.986s-4.591,6.925-24.234,7.468c-18.184.146-25.461-7.449-25.282-7.468s-5.608,0-5.608,0v-9.307h5.608s.239-11.834,9.645-18.462,22.25-5.282,30.856,0,10.327,18.218,10.257,18.462,4.617,0,4.617,0v9.307Z" transform="translate(-2880.099 -2394.736)"/><path class="b" d="M2883.92,2533.822v-8.541l11.406-7.426v12.161l-4.512-3.515,19.152,14.078" transform="translate(-2881.878 -2451.804)"/><path class="b" d="M2909.063,2535.16v-8.949l-11.406-7.426v11.83l4.513-3.184-19.763,14.609" transform="translate(-2851.767 -2453.27)"/><path class="b" d="M2902.258,2450.6s18.171,11.482,35.945,0" transform="translate(-2889.875 -2423.937)"/></g><path class="c" d="M3872.291,2419.36v-8.894h5.309v-4.339h9.27v4.339h5.168v8.894" transform="translate(-971.374 0.689)"/></g></svg>