<svg xmlns="http://www.w3.org/2000/svg" width="14.661" height="21.223" viewBox="0 0 14.661 21.223"><defs><style>.a,.b{fill:none;stroke:#475d98;}.a{stroke-linecap:round;}</style></defs><g transform="translate(-2879.599 -2398.771)"><g transform="translate(2880.099 2399.409)"><path class="a" d="M2895.175,2466.776v3.647l2.937,3.64h3.9l3.073-3.64v-3.647" transform="translate(-2893.369 -2459.014)"/><path class="a" d="M2892.447,2401.96s-1.028,1.551-5.428,1.673c-4.073.033-5.7-1.669-5.664-1.673s-1.256,0-1.256,0v-2.085h1.256a5.6,5.6,0,0,1,2.16-4.136,6.468,6.468,0,0,1,6.912,0c1.928,1.183,2.313,4.081,2.3,4.136a6.531,6.531,0,0,0,1.034,0v2.085Z" transform="translate(-2880.099 -2394.736)"/><path class="a" d="M2883.92,2515.02v-1.913l2.555-1.664v2.724l-1.011-.787,4.29,3.154" transform="translate(-2883.463 -2496.647)"/><path class="a" d="M2888.378,2516.872v-2l-2.555-1.664v2.65l1.011-.713-4.427,3.272" transform="translate(-2875.543 -2498.528)"/><path class="a" d="M2902.258,2450.6s4.071,2.572,8.052,0" transform="translate(-2899.484 -2444.628)"/></g><path class="b" d="M3872.291,2409.091V2407.1h1.189v-.972h2.076v.972h1.158v1.992" transform="translate(-987.529 -5.059)"/></g></svg>