<?xml version="1.0" standalone="no"?><!DOCTYPE svg PUBLIC "-//W3C//DTD SVG 1.1//EN" "http://www.w3.org/Graphics/SVG/1.1/DTD/svg11.dtd"><svg class="icon" width="20px" height="20.00px" viewBox="0 0 1024 1024" version="1.1" xmlns="http://www.w3.org/2000/svg"><path fill="#ffffff" d="M512.000226 1023.638365a107.497153 107.497153 0 0 1-47.360149-10.700052l-7.223664-3.476389-333.417251-189.93722A112.147387 112.147387 0 0 1 66.254997 730.041563V308.585905a111.695908 111.695908 0 0 1 48.804881-92.643493l6.365854-4.063311L456.287716 14.989103A113.817859 113.817859 0 0 1 512.000226 0a111.470168 111.470168 0 0 1 49.075768 11.241827l6.636742 3.747276 334.861984 195.445265a112.869753 112.869753 0 0 1 55.125587 88.896217v422.403765a112.011943 112.011943 0 0 1-49.933579 93.230416l-6.365854 4.018163-333.688138 189.93722a110.747802 110.747802 0 0 1-55.71251 14.718216zM500.758398 93.230416L168.198958 288.314497a21.94188 21.94188 0 0 0-10.700053 16.162949v417.256904a22.212767 22.212767 0 0 0 8.668397 17.607681l3.160353 1.71562 332.830328 189.350298a19.413598 19.413598 0 0 0 10.700053 2.889466 24.379867 24.379867 0 0 0 8.081474 0l3.160353-1.71562 334.09447-190.253256a21.670993 21.670993 0 0 0 10.97094-16.162949V308.315018a22.077324 22.077324 0 0 0-8.352362-17.607682l-2.889466-2.031655-334.591096-196.032188a22.212767 22.212767 0 0 0-10.97094-2.889465 27.54022 27.54022 0 0 0-8.352362 1.444733z m11.241828 796.725014a44.651274 44.651274 0 0 1-43.88376-38.375716v-320.550099L210.051062 384.073196a44.696422 44.696422 0 0 1-16.975611-60.949667 44.74157 44.74157 0 0 1 39.188379-22.57395 49.662691 49.662691 0 0 1 17.020758 3.160353l4.514791 2.302543 255.491973 144.473284 254.589015-144.473284a46.637782 46.637782 0 0 1 22.212767-6.049819 45.147901 45.147901 0 0 1 45.147902 45.147901 45.147901 45.147901 0 0 1-18.059161 36.118321l-4.063311 2.618579-250.570852 142.893107v319.285958a45.147901 45.147901 0 0 1-44.74157 44.470682z m102.485736-66.412563a28.804361 28.804361 0 0 1-30.565129-27.088741v-190.930474a93.636747 93.636747 0 0 1 38.962638-68.715106l5.192009-3.476388 156.16659-92.101719a50.159318 50.159318 0 0 1 25.418269-7.810587 28.894657 28.894657 0 0 1 30.565129 27.088741v190.885326a93.772191 93.772191 0 0 1-38.962639 68.760254l-5.192008 3.431241-156.166591 92.101718a48.985473 48.985473 0 0 1-24.51531 7.810587z m-217.92892-99.325383a45.147901 45.147901 0 0 1-21.08407-5.192009l-166.27972-94.810592a45.147901 45.147901 0 0 1-14.718216-61.220554 45.59938 45.59938 0 0 1 38.104829-23.386613 46.728078 46.728078 0 0 1 22.212767 5.778931l166.008833 94.810593a45.147901 45.147901 0 0 1 16.749872 61.626885 45.147901 45.147901 0 0 1-40.994295 22.573951z" /></svg>