<?xml version="1.0" standalone="no"?><!DOCTYPE svg PUBLIC "-//W3C//DTD SVG 1.1//EN" "http://www.w3.org/Graphics/SVG/1.1/DTD/svg11.dtd"><svg class="icon" width="20px" height="20.00px" viewBox="0 0 1024 1024" version="1.1" xmlns="http://www.w3.org/2000/svg"><path fill="#ffffff" d="M708.848108 959.473154H292.066391a239.487164 239.487164 0 0 1-240.399394-238.682256 239.594485 239.594485 0 0 1 223.549972-239.862788v-0.643927h39.81615V390.510034l212.388571-122.507102 212.281251 122.453442v89.613167a163.289142 163.289142 0 0 0 154.75711-171.713853 163.396463 163.396463 0 0 0-162.752536-155.025413H304.354663a108.930975 108.930975 0 0 1-143.917673 54.841112 108.877315 108.877315 0 0 1-54.787451-143.917673A108.877315 108.877315 0 0 1 249.567212 9.466263 108.984636 108.984636 0 0 1 309.184115 77.132253h422.469739a239.540825 239.540825 0 0 1 240.345733 238.682255 239.487164 239.487164 0 0 1-223.496311 239.755467v0.697588h-8.746675v78.988372l-212.28125 122.453442-212.442232-122.453442v-78.988372h-22.966728a163.396463 163.396463 0 0 0-163.396463 163.396463 163.342803 163.342803 0 0 0 163.396463 163.342803h411.952265a108.877315 108.877315 0 0 1 135.761265-72.602764 108.877315 108.877315 0 0 1 72.602763 135.761265 108.877315 108.877315 0 0 1-135.761265 72.656424 108.769994 108.769994 0 0 1-67.71965-59.616903z m66.7001-44.591941a32.571971 32.571971 0 0 0 32.679292 32.571971 32.625632 32.625632 0 0 0 32.571972-32.679293 32.679293 32.679293 0 0 0-32.625632-32.571971 32.625632 32.625632 0 0 0-32.571972 32.679293z m-272.327439-309.782523a24.361903 24.361903 0 0 0 24.361903 24.361903 24.361903 24.361903 0 0 0 24.361903-24.361903 24.415563 24.415563 0 0 0-24.308242-24.361903 24.469224 24.469224 0 0 0-24.415564 24.361903z m-6.170966-160.176829l12.180951 95.623152a43.626051 43.626051 0 0 0 2.79035 18.727542 15.400586 15.400586 0 0 0 15.454247 7.834445c16.903082 0 18.298257-12.556575 18.298257-26.83029l12.180952-95.623151a25.00583 25.00583 0 0 0-8.961317-18.781203 32.840274 32.840274 0 0 0-21.464232-7.780784 28.76207 28.76207 0 0 0-30.479208 26.830289zM172.349639 109.113958a32.571971 32.571971 0 0 0 32.679293 32.571971 32.625632 32.625632 0 0 0 32.571971-32.679292 32.679293 32.679293 0 0 0-32.625632-32.571972 32.625632 32.625632 0 0 0-32.625632 32.625632z" /></svg>