<svg xmlns="http://www.w3.org/2000/svg" width="18.89" height="16.529" viewBox="0 0 18.89 16.529"><defs><style>.a{}</style></defs><path class="a" d="M81.293,125.475H67.665a2.694,2.694,0,0,0-2.652,2.689v11.185A2.664,2.664,0,0,0,67.665,142h3.757a.671.671,0,0,0,0-1.341H67.665a1.327,1.327,0,0,1-1.334-1.314V128.164a1.357,1.357,0,0,1,1.334-1.348H81.293a1.321,1.321,0,0,1,1.291,1.348v11.185a1.291,1.291,0,0,1-1.291,1.314H77.537a.671.671,0,0,0,0,1.341h3.757a2.628,2.628,0,0,0,2.61-2.655V128.164A2.657,2.657,0,0,0,81.293,125.475ZM81.18,136.2v-4.886a.649.649,0,1,0-1.3,0v4.207h-3.7a.659.659,0,0,0,0,1.319h4.368A.616.616,0,0,0,81.18,136.2Zm-7.356-.68h-1.66a.659.659,0,0,0,0,1.319h1.66a.659.659,0,0,0,0-1.319Zm-3.931,0h-1.66a.659.659,0,0,0,0,1.319h1.66a.659.659,0,0,0,0-1.319Zm3.975-4.88h-1.66a.659.659,0,0,0,0,1.319h1.66a.659.659,0,0,0,0-1.319Zm2.315,1.319h1.66a.659.659,0,0,0,0-1.319h-1.66a.659.659,0,0,0,0,1.319Zm-6.29-1.319h-1.66a.659.659,0,0,0,0,1.319h1.66a.659.659,0,0,0,0-1.319Z" transform="translate(-65.013 -125.475)"/></svg>