<svg xmlns="http://www.w3.org/2000/svg" width="215.935" height="180" viewBox="0 0 215.935 180">
  <defs>
    <style>
      .cls-1, .cls-2, .cls-3 {
        fill: #cdd5e4;
      }

      .cls-2 {
        opacity: 0.1;
      }

      .cls-3 {
        opacity: 0.5;
      }
    </style>
  </defs>
  <g id="组_14639" data-name="组 14639" transform="translate(-972 -392)">
    <g id="组_14543" data-name="组 14543" transform="translate(867.58 353.364)">
      <path id="路径_25199" data-name="路径 25199" class="cls-1" d="M319.069,1012.635H305.552a1.36,1.36,0,0,1,0-2.717h13.517a1.36,1.36,0,0,1,0,2.717Zm-23.348,0H115.915a1.36,1.36,0,0,1,0-2.717H295.721a1.36,1.36,0,0,1,0,2.717Zm-185.667,0h-4.348a1.36,1.36,0,0,1,0-2.717h4.348a1.36,1.36,0,0,1,0,2.717Z" transform="translate(0 -793.999)"/>
      <path id="路径_25200" data-name="路径 25200" class="cls-1" d="M126.264,129.678a2.591,2.591,0,0,0-2.813-2.346,2.67,2.67,0,0,0-1.743.922,2.48,2.48,0,0,0-.58,1.876,2.654,2.654,0,0,0,.937,1.739,2.39,2.39,0,0,0,1.642.615h.205a2.588,2.588,0,0,0,2.352-2.806Zm-1.58,2.075a2.107,2.107,0,0,1-2.326-.254,1.92,1.92,0,0,1-.739-1.419,2.1,2.1,0,0,1,.473-1.544,1.931,1.931,0,0,1,1.426-.737h.188a2.1,2.1,0,0,1,.978,3.955ZM330.407,58.376a3.585,3.585,0,0,0-3.893-3.245,3.691,3.691,0,0,0-2.412,1.275,3.433,3.433,0,0,0-.8,2.6,3.674,3.674,0,0,0,1.3,2.406,3.307,3.307,0,0,0,2.272.851h.284a3.582,3.582,0,0,0,3.254-3.883Zm-2.186,2.871A2.916,2.916,0,0,1,325,60.9a2.655,2.655,0,0,1-1.023-1.964,2.9,2.9,0,0,1,.654-2.137,2.672,2.672,0,0,1,1.974-1.02h.261a2.9,2.9,0,0,1,1.353,5.473ZM129.227,49.772a.556.556,0,0,1-.557-.556V45.622l-2.544,2.538a.57.57,0,0,1-.808-.805l2.545-2.538h-3.609a.558.558,0,1,1,0-1.117h3.609l-2.545-2.508a.571.571,0,1,1,.808-.805l2.544,2.514V39.307a.556.556,0,1,1,1.089,0V42.9l2.569-2.538a.571.571,0,1,1,.808.805l-2.545,2.539h3.6a.558.558,0,1,1,0,1.116h-3.6l2.545,2.539a.57.57,0,0,1-.808.8l-2.569-2.544v3.594c.061.311-.25.556-.556.556h.025Zm5.655,152.278h-1.54v-1.536a.463.463,0,0,0-.927,0v1.536h-1.54a.462.462,0,1,0,0,.924h1.54v1.536a.461.461,0,0,0,.461.46l0-.02a.459.459,0,0,0,.461-.46v-1.515h1.54a.462.462,0,1,0,0-.925Zm187.346-7.438c0,3.045-2.067,5.44-4.623,5.44,2.564,0,4.623,2.436,4.623,5.44,0-3.045,2.067-5.44,4.623-5.44C324.287,200.051,322.228,197.616,322.228,194.611Zm0,0" transform="translate(-13.472)"/>
      <path id="路径_25201" data-name="路径 25201" class="cls-2" d="M384.048,129.231H279.072a27.1,27.1,0,0,0-26.967,27.31V263.1a27.041,27.041,0,0,0,26.967,27.065H384.289c14.687,0,26.725-12.191,26.725-27.31V156.541a27.1,27.1,0,0,0-26.966-27.31Z" transform="translate(-119.189 -73.115)"/>
      <path id="路径_25202" data-name="路径 25202" class="cls-3" d="M266.482,263.1V156.541c0-15.118,12.959-27.31,29.028-27.31H281.133c-16.069,0-29.028,12.192-29.028,27.31V263.1c0,14.874,12.959,27.065,29.028,27.065H295.51C279.441,290.162,266.482,277.971,266.482,263.1Z" transform="translate(-119.189 -73.115)"/>
      <path id="路径_25203" data-name="路径 25203" class="cls-1" d="M378.67,285.838H273.327a28.349,28.349,0,0,1-28.263-28.371V150.806a28.62,28.62,0,0,1,8.265-20.248,27.912,27.912,0,0,1,20-8.368h105.1a27.911,27.911,0,0,1,20,8.368,28.621,28.621,0,0,1,8.264,20.248V210.2a1.264,1.264,0,1,1-2.527,0V150.806a25.927,25.927,0,0,0-25.735-26.057h-105.1a25.927,25.927,0,0,0-25.736,26.057V257.467a25.8,25.8,0,0,0,25.736,25.812H378.67c14.057,0,25.494-11.689,25.494-26.057v-9.374a1.264,1.264,0,1,1,2.527,0v9.374c0,15.779-12.57,28.616-28.021,28.616Z" transform="translate(-113.507 -67.432)"/>
      <path id="路径_25204" data-name="路径 25204" class="cls-1" d="M1132.955,650.032a1.358,1.358,0,0,1-1.359-1.358V637.291a1.358,1.358,0,1,1,2.717,0v11.382A1.358,1.358,0,0,1,1132.955,650.032Z" transform="translate(-841.13 -488.678)"/>
    </g>
    <g id="组_14239" data-name="组 14239" transform="translate(974.016 368.814)">
      <path id="路径_15170" data-name="路径 15170" class="cls-1" d="M346.339,341.941a16.1,16.1,0,1,1,16.285-16.1A16.208,16.208,0,0,1,346.339,341.941Zm0-26.536A10.439,10.439,0,1,0,356.9,325.842,10.507,10.507,0,0,0,346.339,315.4Zm24.484-4h-6.8a2.831,2.831,0,1,1,0-5.662h6.8a2.831,2.831,0,1,1,0,5.662Zm12.617,35.673h-6.8v-6.723a2.866,2.866,0,0,0-5.731,0v6.723h-6.8a2.83,2.83,0,1,0,0,5.66h6.8v6.723a2.866,2.866,0,0,0,5.731,0v-6.723h6.8a2.83,2.83,0,1,0,0-5.66Zm0,0" transform="translate(-240.353 -198.928)"/>
      <path id="路径_15171" data-name="路径 15171" class="cls-1" d="M114.879,157.524a2.844,2.844,0,0,0-2.864-2.832H80.3a8.58,8.58,0,0,1-6.066-2.493,8.38,8.38,0,0,1-2.525-6V111.35a8.379,8.379,0,0,1,2.525-6A8.58,8.58,0,0,1,80.3,102.86h6.185l3.281-9.075a1.428,1.428,0,0,1,1.352-.939h29.739a1.443,1.443,0,0,1,1.348.939l3.277,9.066h6.182a8.589,8.589,0,0,1,6.07,2.493,8.428,8.428,0,0,1,2.521,6.007v17.471a2.864,2.864,0,0,0,5.727,0V111.35A14.231,14.231,0,0,0,131.666,97.2h-2.145l-1.914-5.316a7.16,7.16,0,0,0-6.74-4.7H91.113a7.154,7.154,0,0,0-6.74,4.7L82.451,97.2H80.3A14.231,14.231,0,0,0,65.984,111.35V146.2A14.231,14.231,0,0,0,80.3,160.355h31.712A2.855,2.855,0,0,0,114.879,157.524Zm0,0" transform="translate(0 0)"/>
    </g>
  </g>
</svg>
