<?xml version="1.0" standalone="no"?><!DOCTYPE svg PUBLIC "-//W3C//DTD SVG 1.1//EN" "http://www.w3.org/Graphics/SVG/1.1/DTD/svg11.dtd"><svg class="icon" width="200px" height="200.00px" viewBox="0 0 1024 1024" version="1.1" xmlns="http://www.w3.org/2000/svg"><path fill="#ffffff" d="M218.029734 879.826309a107.55618 107.55618 0 0 0 20.791299-2.110161l119.782705-24.825431a159.503394 159.503394 0 0 0 81.179159-44.685776l507.618001-518.727382a105.508082 105.508082 0 0 0 0-147.214806l-109.107769-111.714439-5.337468 5.21334 3.413497-7.261439a101.287759 101.287759 0 0 0-142.746229 2.110162l-507.618001 518.230873a163.475463 163.475463 0 0 0-43.444504 83.227258l-24.266859 122.575565a105.508082 105.508082 0 0 0 27.92861 94.646956 101.163631 101.163631 0 0 0 71.807559 30.53528z m487.633529-471.683189l-328.936961 336.198399a69.262953 69.262953 0 0 1-36.121002 19.798282l-119.658577 24.825431a13.343669 13.343669 0 0 1-12.040335-3.599688 14.771131 14.771131 0 0 1-3.785878-13.033351l24.204795-122.699693a74.041848 74.041848 0 0 1 19.674155-37.238147l327.01299-334.088238z m-86.330436-173.778018l137.284634-140.263685a12.909224 12.909224 0 0 1 9.061282-3.723815 13.219542 13.219542 0 0 1 9.3716 3.972069l26.625275 27.183847 82.482495 84.406466a14.460814 14.460814 0 0 1 0 20.170663l-135.174472 138.09146zM948.518043 933.759558H75.469697a45.182284 45.182284 0 0 0-45.120221 45.120221 45.182284 45.182284 0 0 0 45.120221 45.120221h873.048346a45.182284 45.182284 0 0 0 45.12022-45.120221 45.182284 45.182284 0 0 0-45.12022-45.120221z" /></svg>