<?xml version="1.0" standalone="no"?><!DOCTYPE svg PUBLIC "-//W3C//DTD SVG 1.1//EN" "http://www.w3.org/Graphics/SVG/1.1/DTD/svg11.dtd"><svg class="icon" width="200px" height="200.00px" viewBox="0 0 1024 1024" version="1.1" xmlns="http://www.w3.org/2000/svg"><path fill="#ffffff" d="M511.983568 522.404278a261.152358 261.152358 0 1 1 184.688381-76.414195 259.60914 259.60914 0 0 1-184.688381 76.414195z m0-434.291492a173.139135 173.139135 0 1 0 173.139135 173.139134A173.288478 173.288478 0 0 0 511.983568 88.112786z m406.513564 935.887214a44.056393 44.056393 0 0 1-44.056393-44.056393v-178.117258a176.474477 176.474477 0 0 0-176.225571-176.225571H325.751969a176.474477 176.474477 0 0 0-176.225571 176.225571v177.967914a44.056393 44.056393 0 0 1-88.112786 0v-177.967914a264.338357 264.338357 0 0 1 264.338357-264.338357h372.363636a264.338357 264.338357 0 0 1 264.338357 264.338357v177.967914a43.857268 43.857268 0 0 1-43.907049 44.106175zM259.244239 1023.900438a44.056393 44.056393 0 0 1-44.056393-44.056393v-105.735343a44.056393 44.056393 0 1 1 88.112786 0v105.735343a44.056393 44.056393 0 0 1-44.056393 44.056393z m505.52844 0a44.056393 44.056393 0 0 1-44.056393-44.056393v-105.735343a44.056393 44.056393 0 1 1 88.112786 0v105.735343a44.056393 44.056393 0 0 1-44.056393 44.056393z" /></svg>