<?xml version="1.0" standalone="no"?><!DOCTYPE svg PUBLIC "-//W3C//DTD SVG 1.1//EN" "http://www.w3.org/Graphics/SVG/1.1/DTD/svg11.dtd"><svg class="icon" width="200px" height="200.00px" viewBox="0 0 1024 1024" version="1.1" xmlns="http://www.w3.org/2000/svg"><path fill="#ffffff" d="M519.52 0a193.152 193.152 0 0 0-192.96 186.944H82.848a49.216 49.216 0 0 0 0 98.432h54.336v550.72A174.656 174.656 0 0 0 293.92 1024h441.6a174.4 174.4 0 0 0 156.736-187.904v-550.4h49.216a49.216 49.216 0 0 0 0-98.432h-229.248A192.576 192.576 0 0 0 519.584 0zM418.784 186.944a100.864 100.864 0 0 1 201.344 0zM293.728 931.968c-30.656 0-64.512-39.36-64.512-96v-550.4h570.432v550.912c0 56.256-33.792 96-64.512 96h-441.6z m0 0M336.544 833.536a53.76 53.76 0 0 0 47.296-58.496V441.408a48.384 48.384 0 1 0-94.592 0v333.632a53.504 53.504 0 0 0 47.296 58.496z m171.264 0a53.76 53.76 0 0 0 47.296-58.496V441.408a48.384 48.384 0 1 0-94.592 0v333.632a53.888 53.888 0 0 0 47.296 58.496z m180.16 0a53.76 53.76 0 0 0 47.296-58.496V441.408a48.384 48.384 0 1 0-94.592 0v333.632a53.376 53.376 0 0 0 47.296 58.496z m0 0" /></svg>