<?xml version="1.0" standalone="no"?><!DOCTYPE svg PUBLIC "-//W3C//DTD SVG 1.1//EN" "http://www.w3.org/Graphics/SVG/1.1/DTD/svg11.dtd"><svg class="icon" width="200px" height="196.55px" viewBox="0 0 1042 1024" version="1.1" xmlns="http://www.w3.org/2000/svg"><path fill="#ffffff" d="M489.392781 881.400893v-1.123632h-8.478314a399.706523 399.706523 0 1 1 401.391971-399.144707l0.561816 8.478314h1.123632a39.173895 39.173895 0 0 0 37.794892 30.644507 38.203486 38.203486 0 0 0 37.794893-30.644507h1.123631v-8.478314a480.09728 480.09728 0 1 0-480.09728 478.616129l8.478314-0.561816v-1.123632a38.714228 38.714228 0 0 0 25.537089-18.591001 39.837859 39.837859 0 0 0 0-38.918524 36.773409 36.773409 0 0 0-25.230644-19.152817z m514.112683-72.729631h-105.417105V703.254157a36.67126 36.67126 0 1 0-73.291446 0v105.417105h-105.417105a36.67126 36.67126 0 1 0 0 73.291447h105.417105v105.417105a36.67126 36.67126 0 0 0 73.291446 0v-105.417105h105.417105a36.67126 36.67126 0 1 0 0-73.291447zM723.874336 675.010137a232.438588 232.438588 0 0 0-124.569922-206.339683A155.061207 155.061207 0 0 0 488.269149 203.697615a157.002026 157.002026 0 0 0-157.257396 155.571948 153.222536 153.222536 0 0 0 45.660315 109.349817 232.949329 232.949329 0 0 0-125.131738 206.339682 16.599108 16.599108 0 0 0 16.905554 16.905554h39.48034a17.058776 17.058776 0 0 0 12.411025-5.61816 18.182408 18.182408 0 0 0 4.494528-11.84921 160.985811 160.985811 0 0 1 143.0077-159.555734 310.377784 310.377784 0 0 1 41.165789 0h1.685447a162.211592 162.211592 0 0 1 139.228212 158.993918 19.714633 19.714633 0 0 0 4.494527 12.411026 17.467369 17.467369 0 0 0 12.411026 5.107418h40.042156a15.832995 15.832995 0 0 0 17.007702-16.343737z m-147.706525-315.689499a87.949736 87.949736 0 1 1-87.949736-86.826104 87.438994 87.438994 0 0 1 88.00081 86.826104z" /></svg>