<?xml version="1.0" standalone="no"?><!DOCTYPE svg PUBLIC "-//W3C//DTD SVG 1.1//EN" "http://www.w3.org/Graphics/SVG/1.1/DTD/svg11.dtd"><svg class="icon" width="200px" height="200.00px" viewBox="0 0 1024 1024" version="1.1" xmlns="http://www.w3.org/2000/svg"><path fill="#ffffff" d="M545.125822 13.516773a44.95351 44.95351 0 0 0-33.075134-13.414373 44.95351 44.95351 0 0 0-33.075134 13.414373L246.22082 246.271507a46.591907 46.591907 0 0 0-13.465574 33.075134 46.591907 46.591907 0 0 0 46.591907 46.540707 46.591907 46.591907 0 0 0 33.075134-13.465573l153.087694-153.599693v539.493321a46.591907 46.591907 0 0 0 93.132614 0V158.975682l153.087694 153.599693a46.796706 46.796706 0 0 0 66.201467-66.201468zM977.508957 651.621097zM1010.379291 665.291469a46.489507 46.489507 0 0 0-79.359841 32.921535v186.162827a45.516709 45.516709 0 0 1-13.260774 32.921534 43.212714 43.212714 0 0 1-32.204735 13.670373H139.776232a46.591907 46.591907 0 0 1-46.591906-46.540707v-186.162828a46.591907 46.591907 0 0 0-93.132614 0v186.162828a139.110122 139.110122 0 0 0 139.622121 139.622121h745.828908a139.007722 139.007722 0 0 0 138.546923-139.622121v-186.162828a44.85111 44.85111 0 0 0-13.670373-32.972734z" /></svg>